G04 #@! TF.GenerationSoftware,KiCad,Pcbnew,6.0.9-8da3e8f707~116~ubuntu22.04.1*
G04 #@! TF.CreationDate,2022-11-08T11:47:18+01:00*
G04 #@! TF.ProjectId,PCB-lijnvolger,5043422d-6c69-46a6-9e76-6f6c6765722e,1.0*
G04 #@! TF.SameCoordinates,Original*
G04 #@! TF.FileFunction,Paste,Bot*
G04 #@! TF.FilePolarity,Positive*
%FSLAX46Y46*%
G04 Gerber Fmt 4.6, Leading zero omitted, Abs format (unit mm)*
G04 Created by KiCad (PCBNEW 6.0.9-8da3e8f707~116~ubuntu22.04.1) date 2022-11-08 11:47:18*
%MOMM*%
%LPD*%
G01*
G04 APERTURE LIST*
G04 Aperture macros list*
%AMRoundRect*
0 Rectangle with rounded corners*
0 $1 Rounding radius*
0 $2 $3 $4 $5 $6 $7 $8 $9 X,Y pos of 4 corners*
0 Add a 4 corners polygon primitive as box body*
4,1,4,$2,$3,$4,$5,$6,$7,$8,$9,$2,$3,0*
0 Add four circle primitives for the rounded corners*
1,1,$1+$1,$2,$3*
1,1,$1+$1,$4,$5*
1,1,$1+$1,$6,$7*
1,1,$1+$1,$8,$9*
0 Add four rect primitives between the rounded corners*
20,1,$1+$1,$2,$3,$4,$5,0*
20,1,$1+$1,$4,$5,$6,$7,0*
20,1,$1+$1,$6,$7,$8,$9,0*
20,1,$1+$1,$8,$9,$2,$3,0*%
G04 Aperture macros list end*
%ADD10RoundRect,0.250000X0.475000X-0.337500X0.475000X0.337500X-0.475000X0.337500X-0.475000X-0.337500X0*%
%ADD11R,1.295400X0.889000*%
%ADD12RoundRect,0.250000X0.450000X-0.350000X0.450000X0.350000X-0.450000X0.350000X-0.450000X-0.350000X0*%
G04 APERTURE END LIST*
D10*
X154086750Y-88032500D03*
X154086750Y-85957500D03*
D11*
X147651000Y-82023001D03*
X147651000Y-84092999D03*
X144349000Y-84092999D03*
X144349000Y-82023001D03*
X156083000Y-82023001D03*
X156083000Y-84092999D03*
X152781000Y-84092999D03*
X152781000Y-82023001D03*
D12*
X147732000Y-87995000D03*
X147732000Y-85995000D03*
D10*
X162814000Y-88032500D03*
X162814000Y-85957500D03*
X120300000Y-88032500D03*
X120300000Y-85957500D03*
D12*
X130932000Y-87995000D03*
X130932000Y-85995000D03*
X105232000Y-87995000D03*
X105232000Y-85995000D03*
D10*
X103200000Y-88032500D03*
X103200000Y-85957500D03*
D11*
X113986820Y-82023001D03*
X113986820Y-84092999D03*
X110684820Y-84092999D03*
X110684820Y-82023001D03*
X164719000Y-82023001D03*
X164719000Y-84092999D03*
X161417000Y-84092999D03*
X161417000Y-82023001D03*
D10*
X111878000Y-88032500D03*
X111878000Y-85957500D03*
D11*
X122251000Y-82023001D03*
X122251000Y-84092999D03*
X118949000Y-84092999D03*
X118949000Y-82023001D03*
X139319000Y-82023001D03*
X139319000Y-84092999D03*
X136017000Y-84092999D03*
X136017000Y-82023001D03*
D12*
X139264000Y-87995000D03*
X139264000Y-85995000D03*
D10*
X145700000Y-88032500D03*
X145700000Y-85957500D03*
D12*
X164846000Y-87995000D03*
X164846000Y-85995000D03*
D11*
X130937000Y-82023001D03*
X130937000Y-84092999D03*
X127635000Y-84092999D03*
X127635000Y-82023001D03*
D12*
X113910000Y-87995000D03*
X113910000Y-85995000D03*
X156118750Y-87995000D03*
X156118750Y-85995000D03*
D10*
X128900000Y-88032500D03*
X128900000Y-85957500D03*
D12*
X122332000Y-87995000D03*
X122332000Y-85995000D03*
D11*
X105351000Y-82023001D03*
X105351000Y-84092999D03*
X102049000Y-84092999D03*
X102049000Y-82023001D03*
D10*
X137232000Y-88032500D03*
X137232000Y-85957500D03*
M02*
