M48
; DRILL file {KiCad 6.0.9-8da3e8f707~116~ubuntu22.04.1} date di 08 nov 2022 11:47:21
; FORMAT={-:-/ absolute / metric / decimal}
; #@! TF.CreationDate,2022-11-08T11:47:21+01:00
; #@! TF.GenerationSoftware,Kicad,Pcbnew,6.0.9-8da3e8f707~116~ubuntu22.04.1
; #@! TF.FileFunction,Plated,1,2,PTH
FMAT,2
METRIC
; #@! TA.AperFunction,Plated,PTH,ViaDrill
T1C0.400
; #@! TA.AperFunction,Plated,PTH,ComponentDrill
T2C1.000
; #@! TA.AperFunction,Plated,PTH,ComponentDrill
T3C2.500
%
G90
G05
T1
X107.0Y-82.0
X107.25Y-94.8
X110.3Y-85.9
X110.9Y-91.3
X115.7Y-82.1
X118.5Y-85.95
X123.178Y-94.292
X123.3Y-93.3
X124.1Y-82.0
X124.6Y-93.5
X126.754Y-94.672
X129.033Y-96.139
X132.1Y-96.1
X132.7Y-82.1
X133.0Y-91.3
X133.7Y-95.1
X134.687Y-92.87
X135.6Y-93.4
X140.8Y-94.9
X141.0Y-82.0
X145.8Y-90.924
X148.5Y-91.4
X149.4Y-82.0
X150.95Y-86.1
X158.9Y-85.55
X159.5Y-82.0
X160.888Y-91.488
T2
X153.695Y-92.325
X153.695Y-94.865
X156.235Y-92.325
X156.235Y-94.865
X158.775Y-92.325
X158.775Y-94.865
T3
X103.3Y-93.7
X163.7Y-93.7
T0
M30
