%TF.GenerationSoftware,KiCad,Pcbnew,6.0.9-8da3e8f707~116~ubuntu22.04.1*%
%TF.CreationDate,2022-11-08T11:47:22+01:00*%
%TF.ProjectId,PCB-lijnvolger,5043422d-6c69-46a6-9e76-6f6c6765722e,1.0*%
%TF.SameCoordinates,Original*%
%TF.FileFunction,Drillmap*%
%TF.FilePolarity,Positive*%
%FSLAX45Y45*%
G04 Gerber Fmt 4.5, Leading zero omitted, Abs format (unit mm)*
G04 Created by KiCad (PCBNEW 6.0.9-8da3e8f707~116~ubuntu22.04.1) date 2022-11-08 11:47:22*
%MOMM*%
%LPD*%
G01*
G04 APERTURE LIST*
%ADD10C,0.100000*%
%ADD11C,0.200000*%
%ADD12C,0.040000*%
%ADD13C,0.250000*%
G04 APERTURE END LIST*
D10*
X10000000Y-8000000D02*
X16700000Y-8000000D01*
X16700000Y-8000000D02*
X16700000Y-9700000D01*
X16700000Y-9700000D02*
X10000000Y-9700000D01*
X10000000Y-9700000D02*
X10000000Y-8000000D01*
D11*
D12*
X10680000Y-8180000D02*
X10720000Y-8220000D01*
X10720000Y-8180000D02*
X10680000Y-8220000D01*
X10705000Y-9460000D02*
X10745000Y-9500000D01*
X10745000Y-9460000D02*
X10705000Y-9500000D01*
X11010000Y-8570000D02*
X11050000Y-8610000D01*
X11050000Y-8570000D02*
X11010000Y-8610000D01*
X11070000Y-9110000D02*
X11110000Y-9150000D01*
X11110000Y-9110000D02*
X11070000Y-9150000D01*
X11550000Y-8190000D02*
X11590000Y-8230000D01*
X11590000Y-8190000D02*
X11550000Y-8230000D01*
X11830000Y-8575000D02*
X11870000Y-8615000D01*
X11870000Y-8575000D02*
X11830000Y-8615000D01*
X12297789Y-9409202D02*
X12337789Y-9449202D01*
X12337789Y-9409202D02*
X12297789Y-9449202D01*
X12310000Y-9310000D02*
X12350000Y-9350000D01*
X12350000Y-9310000D02*
X12310000Y-9350000D01*
X12390000Y-8180000D02*
X12430000Y-8220000D01*
X12430000Y-8180000D02*
X12390000Y-8220000D01*
X12440000Y-9330000D02*
X12480000Y-9370000D01*
X12480000Y-9330000D02*
X12440000Y-9370000D01*
X12655448Y-9447243D02*
X12695448Y-9487243D01*
X12695448Y-9447243D02*
X12655448Y-9487243D01*
X12883280Y-9593897D02*
X12923280Y-9633897D01*
X12923280Y-9593897D02*
X12883280Y-9633897D01*
X13190000Y-9590000D02*
X13230000Y-9630000D01*
X13230000Y-9590000D02*
X13190000Y-9630000D01*
X13250000Y-8190000D02*
X13290000Y-8230000D01*
X13290000Y-8190000D02*
X13250000Y-8230000D01*
X13280000Y-9110000D02*
X13320000Y-9150000D01*
X13320000Y-9110000D02*
X13280000Y-9150000D01*
X13350000Y-9490000D02*
X13390000Y-9530000D01*
X13390000Y-9490000D02*
X13350000Y-9530000D01*
X13448664Y-9267050D02*
X13488664Y-9307050D01*
X13488664Y-9267050D02*
X13448664Y-9307050D01*
X13540000Y-9320000D02*
X13580000Y-9360000D01*
X13580000Y-9320000D02*
X13540000Y-9360000D01*
X14060000Y-9470000D02*
X14100000Y-9510000D01*
X14100000Y-9470000D02*
X14060000Y-9510000D01*
X14080000Y-8180000D02*
X14120000Y-8220000D01*
X14120000Y-8180000D02*
X14080000Y-8220000D01*
X14560000Y-9072450D02*
X14600000Y-9112450D01*
X14600000Y-9072450D02*
X14560000Y-9112450D01*
X14830000Y-9120000D02*
X14870000Y-9160000D01*
X14870000Y-9120000D02*
X14830000Y-9160000D01*
X14920000Y-8180000D02*
X14960000Y-8220000D01*
X14960000Y-8180000D02*
X14920000Y-8220000D01*
X15075000Y-8590000D02*
X15115000Y-8630000D01*
X15115000Y-8590000D02*
X15075000Y-8630000D01*
X15870000Y-8535000D02*
X15910000Y-8575000D01*
X15910000Y-8535000D02*
X15870000Y-8575000D01*
X15930000Y-8180000D02*
X15970000Y-8220000D01*
X15970000Y-8180000D02*
X15930000Y-8220000D01*
X16068770Y-9128770D02*
X16108770Y-9168770D01*
X16108770Y-9128770D02*
X16068770Y-9168770D01*
D10*
X15419500Y-9232500D02*
G75*
G03*
X15419500Y-9232500I-50000J0D01*
G01*
X15419500Y-9486500D02*
G75*
G03*
X15419500Y-9486500I-50000J0D01*
G01*
X15673500Y-9232500D02*
G75*
G03*
X15673500Y-9232500I-50000J0D01*
G01*
X15673500Y-9486500D02*
G75*
G03*
X15673500Y-9486500I-50000J0D01*
G01*
X15927500Y-9232500D02*
G75*
G03*
X15927500Y-9232500I-50000J0D01*
G01*
X15927500Y-9486500D02*
G75*
G03*
X15927500Y-9486500I-50000J0D01*
G01*
D13*
X10330000Y-9245000D02*
X10330000Y-9495000D01*
X10205000Y-9370000D02*
X10455000Y-9370000D01*
X16370000Y-9245000D02*
X16370000Y-9495000D01*
X16245000Y-9370000D02*
X16495000Y-9370000D01*
D11*
X10252619Y-10015476D02*
X10252619Y-9815476D01*
X10300238Y-9815476D01*
X10328810Y-9825000D01*
X10347857Y-9844048D01*
X10357381Y-9863095D01*
X10366905Y-9901190D01*
X10366905Y-9929762D01*
X10357381Y-9967857D01*
X10347857Y-9986905D01*
X10328810Y-10005952D01*
X10300238Y-10015476D01*
X10252619Y-10015476D01*
X10452619Y-10015476D02*
X10452619Y-9882143D01*
X10452619Y-9920238D02*
X10462143Y-9901190D01*
X10471667Y-9891667D01*
X10490714Y-9882143D01*
X10509762Y-9882143D01*
X10576429Y-10015476D02*
X10576429Y-9882143D01*
X10576429Y-9815476D02*
X10566905Y-9825000D01*
X10576429Y-9834524D01*
X10585952Y-9825000D01*
X10576429Y-9815476D01*
X10576429Y-9834524D01*
X10700238Y-10015476D02*
X10681190Y-10005952D01*
X10671667Y-9986905D01*
X10671667Y-9815476D01*
X10805000Y-10015476D02*
X10785952Y-10005952D01*
X10776429Y-9986905D01*
X10776429Y-9815476D01*
X11033571Y-10015476D02*
X11033571Y-9815476D01*
X11100238Y-9958333D01*
X11166905Y-9815476D01*
X11166905Y-10015476D01*
X11347857Y-10015476D02*
X11347857Y-9910714D01*
X11338333Y-9891667D01*
X11319286Y-9882143D01*
X11281190Y-9882143D01*
X11262143Y-9891667D01*
X11347857Y-10005952D02*
X11328809Y-10015476D01*
X11281190Y-10015476D01*
X11262143Y-10005952D01*
X11252619Y-9986905D01*
X11252619Y-9967857D01*
X11262143Y-9948810D01*
X11281190Y-9939286D01*
X11328809Y-9939286D01*
X11347857Y-9929762D01*
X11443095Y-9882143D02*
X11443095Y-10082143D01*
X11443095Y-9891667D02*
X11462143Y-9882143D01*
X11500238Y-9882143D01*
X11519286Y-9891667D01*
X11528809Y-9901190D01*
X11538333Y-9920238D01*
X11538333Y-9977381D01*
X11528809Y-9996429D01*
X11519286Y-10005952D01*
X11500238Y-10015476D01*
X11462143Y-10015476D01*
X11443095Y-10005952D01*
X11624048Y-9996429D02*
X11633571Y-10005952D01*
X11624048Y-10015476D01*
X11614524Y-10005952D01*
X11624048Y-9996429D01*
X11624048Y-10015476D01*
X11624048Y-9891667D02*
X11633571Y-9901190D01*
X11624048Y-9910714D01*
X11614524Y-9901190D01*
X11624048Y-9891667D01*
X11624048Y-9910714D01*
D12*
X9955000Y-10325000D02*
X9995000Y-10365000D01*
X9995000Y-10325000D02*
X9955000Y-10365000D01*
D11*
X10290714Y-10235476D02*
X10309762Y-10235476D01*
X10328810Y-10245000D01*
X10338333Y-10254524D01*
X10347857Y-10273571D01*
X10357381Y-10311667D01*
X10357381Y-10359286D01*
X10347857Y-10397381D01*
X10338333Y-10416429D01*
X10328810Y-10425952D01*
X10309762Y-10435476D01*
X10290714Y-10435476D01*
X10271667Y-10425952D01*
X10262143Y-10416429D01*
X10252619Y-10397381D01*
X10243095Y-10359286D01*
X10243095Y-10311667D01*
X10252619Y-10273571D01*
X10262143Y-10254524D01*
X10271667Y-10245000D01*
X10290714Y-10235476D01*
X10443095Y-10416429D02*
X10452619Y-10425952D01*
X10443095Y-10435476D01*
X10433571Y-10425952D01*
X10443095Y-10416429D01*
X10443095Y-10435476D01*
X10624048Y-10302143D02*
X10624048Y-10435476D01*
X10576429Y-10225952D02*
X10528810Y-10368810D01*
X10652619Y-10368810D01*
X10766905Y-10235476D02*
X10785952Y-10235476D01*
X10805000Y-10245000D01*
X10814524Y-10254524D01*
X10824048Y-10273571D01*
X10833571Y-10311667D01*
X10833571Y-10359286D01*
X10824048Y-10397381D01*
X10814524Y-10416429D01*
X10805000Y-10425952D01*
X10785952Y-10435476D01*
X10766905Y-10435476D01*
X10747857Y-10425952D01*
X10738333Y-10416429D01*
X10728810Y-10397381D01*
X10719286Y-10359286D01*
X10719286Y-10311667D01*
X10728810Y-10273571D01*
X10738333Y-10254524D01*
X10747857Y-10245000D01*
X10766905Y-10235476D01*
X10957381Y-10235476D02*
X10976429Y-10235476D01*
X10995476Y-10245000D01*
X11005000Y-10254524D01*
X11014524Y-10273571D01*
X11024048Y-10311667D01*
X11024048Y-10359286D01*
X11014524Y-10397381D01*
X11005000Y-10416429D01*
X10995476Y-10425952D01*
X10976429Y-10435476D01*
X10957381Y-10435476D01*
X10938333Y-10425952D01*
X10928810Y-10416429D01*
X10919286Y-10397381D01*
X10909762Y-10359286D01*
X10909762Y-10311667D01*
X10919286Y-10273571D01*
X10928810Y-10254524D01*
X10938333Y-10245000D01*
X10957381Y-10235476D01*
X11109762Y-10435476D02*
X11109762Y-10302143D01*
X11109762Y-10321190D02*
X11119286Y-10311667D01*
X11138333Y-10302143D01*
X11166905Y-10302143D01*
X11185952Y-10311667D01*
X11195476Y-10330714D01*
X11195476Y-10435476D01*
X11195476Y-10330714D02*
X11205000Y-10311667D01*
X11224048Y-10302143D01*
X11252619Y-10302143D01*
X11271667Y-10311667D01*
X11281190Y-10330714D01*
X11281190Y-10435476D01*
X11376428Y-10435476D02*
X11376428Y-10302143D01*
X11376428Y-10321190D02*
X11385952Y-10311667D01*
X11405000Y-10302143D01*
X11433571Y-10302143D01*
X11452619Y-10311667D01*
X11462143Y-10330714D01*
X11462143Y-10435476D01*
X11462143Y-10330714D02*
X11471667Y-10311667D01*
X11490714Y-10302143D01*
X11519286Y-10302143D01*
X11538333Y-10311667D01*
X11547857Y-10330714D01*
X11547857Y-10435476D01*
X11938333Y-10225952D02*
X11766905Y-10483095D01*
X12195476Y-10235476D02*
X12214524Y-10235476D01*
X12233571Y-10245000D01*
X12243095Y-10254524D01*
X12252619Y-10273571D01*
X12262143Y-10311667D01*
X12262143Y-10359286D01*
X12252619Y-10397381D01*
X12243095Y-10416429D01*
X12233571Y-10425952D01*
X12214524Y-10435476D01*
X12195476Y-10435476D01*
X12176428Y-10425952D01*
X12166905Y-10416429D01*
X12157381Y-10397381D01*
X12147857Y-10359286D01*
X12147857Y-10311667D01*
X12157381Y-10273571D01*
X12166905Y-10254524D01*
X12176428Y-10245000D01*
X12195476Y-10235476D01*
X12347857Y-10416429D02*
X12357381Y-10425952D01*
X12347857Y-10435476D01*
X12338333Y-10425952D01*
X12347857Y-10416429D01*
X12347857Y-10435476D01*
X12481190Y-10235476D02*
X12500238Y-10235476D01*
X12519286Y-10245000D01*
X12528809Y-10254524D01*
X12538333Y-10273571D01*
X12547857Y-10311667D01*
X12547857Y-10359286D01*
X12538333Y-10397381D01*
X12528809Y-10416429D01*
X12519286Y-10425952D01*
X12500238Y-10435476D01*
X12481190Y-10435476D01*
X12462143Y-10425952D01*
X12452619Y-10416429D01*
X12443095Y-10397381D01*
X12433571Y-10359286D01*
X12433571Y-10311667D01*
X12443095Y-10273571D01*
X12452619Y-10254524D01*
X12462143Y-10245000D01*
X12481190Y-10235476D01*
X12738333Y-10435476D02*
X12624048Y-10435476D01*
X12681190Y-10435476D02*
X12681190Y-10235476D01*
X12662143Y-10264048D01*
X12643095Y-10283095D01*
X12624048Y-10292619D01*
X12919286Y-10235476D02*
X12824048Y-10235476D01*
X12814524Y-10330714D01*
X12824048Y-10321190D01*
X12843095Y-10311667D01*
X12890714Y-10311667D01*
X12909762Y-10321190D01*
X12919286Y-10330714D01*
X12928809Y-10349762D01*
X12928809Y-10397381D01*
X12919286Y-10416429D01*
X12909762Y-10425952D01*
X12890714Y-10435476D01*
X12843095Y-10435476D01*
X12824048Y-10425952D01*
X12814524Y-10416429D01*
X12995476Y-10235476D02*
X13128809Y-10235476D01*
X13043095Y-10435476D01*
X13195476Y-10235476D02*
X13195476Y-10273571D01*
X13271667Y-10235476D02*
X13271667Y-10273571D01*
X13566905Y-10511667D02*
X13557381Y-10502143D01*
X13538333Y-10473571D01*
X13528809Y-10454524D01*
X13519286Y-10425952D01*
X13509762Y-10378333D01*
X13509762Y-10340238D01*
X13519286Y-10292619D01*
X13528809Y-10264048D01*
X13538333Y-10245000D01*
X13557381Y-10216429D01*
X13566905Y-10206905D01*
X13633571Y-10254524D02*
X13643095Y-10245000D01*
X13662143Y-10235476D01*
X13709762Y-10235476D01*
X13728809Y-10245000D01*
X13738333Y-10254524D01*
X13747857Y-10273571D01*
X13747857Y-10292619D01*
X13738333Y-10321190D01*
X13624048Y-10435476D01*
X13747857Y-10435476D01*
X13814524Y-10235476D02*
X13947857Y-10235476D01*
X13862143Y-10435476D01*
X14176428Y-10435476D02*
X14176428Y-10235476D01*
X14262143Y-10435476D02*
X14262143Y-10330714D01*
X14252619Y-10311667D01*
X14233571Y-10302143D01*
X14205000Y-10302143D01*
X14185952Y-10311667D01*
X14176428Y-10321190D01*
X14385952Y-10435476D02*
X14366905Y-10425952D01*
X14357381Y-10416429D01*
X14347857Y-10397381D01*
X14347857Y-10340238D01*
X14357381Y-10321190D01*
X14366905Y-10311667D01*
X14385952Y-10302143D01*
X14414524Y-10302143D01*
X14433571Y-10311667D01*
X14443095Y-10321190D01*
X14452619Y-10340238D01*
X14452619Y-10397381D01*
X14443095Y-10416429D01*
X14433571Y-10425952D01*
X14414524Y-10435476D01*
X14385952Y-10435476D01*
X14566905Y-10435476D02*
X14547857Y-10425952D01*
X14538333Y-10406905D01*
X14538333Y-10235476D01*
X14719286Y-10425952D02*
X14700238Y-10435476D01*
X14662143Y-10435476D01*
X14643095Y-10425952D01*
X14633571Y-10406905D01*
X14633571Y-10330714D01*
X14643095Y-10311667D01*
X14662143Y-10302143D01*
X14700238Y-10302143D01*
X14719286Y-10311667D01*
X14728809Y-10330714D01*
X14728809Y-10349762D01*
X14633571Y-10368810D01*
X14805000Y-10425952D02*
X14824048Y-10435476D01*
X14862143Y-10435476D01*
X14881190Y-10425952D01*
X14890714Y-10406905D01*
X14890714Y-10397381D01*
X14881190Y-10378333D01*
X14862143Y-10368810D01*
X14833571Y-10368810D01*
X14814524Y-10359286D01*
X14805000Y-10340238D01*
X14805000Y-10330714D01*
X14814524Y-10311667D01*
X14833571Y-10302143D01*
X14862143Y-10302143D01*
X14881190Y-10311667D01*
X14957381Y-10511667D02*
X14966905Y-10502143D01*
X14985952Y-10473571D01*
X14995476Y-10454524D01*
X15005000Y-10425952D01*
X15014524Y-10378333D01*
X15014524Y-10340238D01*
X15005000Y-10292619D01*
X14995476Y-10264048D01*
X14985952Y-10245000D01*
X14966905Y-10216429D01*
X14957381Y-10206905D01*
D10*
X9995000Y-10609000D02*
G75*
G03*
X9995000Y-10609000I-50000J0D01*
G01*
D11*
X10357381Y-10699476D02*
X10243095Y-10699476D01*
X10300238Y-10699476D02*
X10300238Y-10499476D01*
X10281190Y-10528048D01*
X10262143Y-10547095D01*
X10243095Y-10556619D01*
X10443095Y-10680429D02*
X10452619Y-10689952D01*
X10443095Y-10699476D01*
X10433571Y-10689952D01*
X10443095Y-10680429D01*
X10443095Y-10699476D01*
X10576429Y-10499476D02*
X10595476Y-10499476D01*
X10614524Y-10509000D01*
X10624048Y-10518524D01*
X10633571Y-10537571D01*
X10643095Y-10575667D01*
X10643095Y-10623286D01*
X10633571Y-10661381D01*
X10624048Y-10680429D01*
X10614524Y-10689952D01*
X10595476Y-10699476D01*
X10576429Y-10699476D01*
X10557381Y-10689952D01*
X10547857Y-10680429D01*
X10538333Y-10661381D01*
X10528810Y-10623286D01*
X10528810Y-10575667D01*
X10538333Y-10537571D01*
X10547857Y-10518524D01*
X10557381Y-10509000D01*
X10576429Y-10499476D01*
X10766905Y-10499476D02*
X10785952Y-10499476D01*
X10805000Y-10509000D01*
X10814524Y-10518524D01*
X10824048Y-10537571D01*
X10833571Y-10575667D01*
X10833571Y-10623286D01*
X10824048Y-10661381D01*
X10814524Y-10680429D01*
X10805000Y-10689952D01*
X10785952Y-10699476D01*
X10766905Y-10699476D01*
X10747857Y-10689952D01*
X10738333Y-10680429D01*
X10728810Y-10661381D01*
X10719286Y-10623286D01*
X10719286Y-10575667D01*
X10728810Y-10537571D01*
X10738333Y-10518524D01*
X10747857Y-10509000D01*
X10766905Y-10499476D01*
X10957381Y-10499476D02*
X10976429Y-10499476D01*
X10995476Y-10509000D01*
X11005000Y-10518524D01*
X11014524Y-10537571D01*
X11024048Y-10575667D01*
X11024048Y-10623286D01*
X11014524Y-10661381D01*
X11005000Y-10680429D01*
X10995476Y-10689952D01*
X10976429Y-10699476D01*
X10957381Y-10699476D01*
X10938333Y-10689952D01*
X10928810Y-10680429D01*
X10919286Y-10661381D01*
X10909762Y-10623286D01*
X10909762Y-10575667D01*
X10919286Y-10537571D01*
X10928810Y-10518524D01*
X10938333Y-10509000D01*
X10957381Y-10499476D01*
X11109762Y-10699476D02*
X11109762Y-10566143D01*
X11109762Y-10585190D02*
X11119286Y-10575667D01*
X11138333Y-10566143D01*
X11166905Y-10566143D01*
X11185952Y-10575667D01*
X11195476Y-10594714D01*
X11195476Y-10699476D01*
X11195476Y-10594714D02*
X11205000Y-10575667D01*
X11224048Y-10566143D01*
X11252619Y-10566143D01*
X11271667Y-10575667D01*
X11281190Y-10594714D01*
X11281190Y-10699476D01*
X11376428Y-10699476D02*
X11376428Y-10566143D01*
X11376428Y-10585190D02*
X11385952Y-10575667D01*
X11405000Y-10566143D01*
X11433571Y-10566143D01*
X11452619Y-10575667D01*
X11462143Y-10594714D01*
X11462143Y-10699476D01*
X11462143Y-10594714D02*
X11471667Y-10575667D01*
X11490714Y-10566143D01*
X11519286Y-10566143D01*
X11538333Y-10575667D01*
X11547857Y-10594714D01*
X11547857Y-10699476D01*
X11938333Y-10489952D02*
X11766905Y-10747095D01*
X12195476Y-10499476D02*
X12214524Y-10499476D01*
X12233571Y-10509000D01*
X12243095Y-10518524D01*
X12252619Y-10537571D01*
X12262143Y-10575667D01*
X12262143Y-10623286D01*
X12252619Y-10661381D01*
X12243095Y-10680429D01*
X12233571Y-10689952D01*
X12214524Y-10699476D01*
X12195476Y-10699476D01*
X12176428Y-10689952D01*
X12166905Y-10680429D01*
X12157381Y-10661381D01*
X12147857Y-10623286D01*
X12147857Y-10575667D01*
X12157381Y-10537571D01*
X12166905Y-10518524D01*
X12176428Y-10509000D01*
X12195476Y-10499476D01*
X12347857Y-10680429D02*
X12357381Y-10689952D01*
X12347857Y-10699476D01*
X12338333Y-10689952D01*
X12347857Y-10680429D01*
X12347857Y-10699476D01*
X12481190Y-10499476D02*
X12500238Y-10499476D01*
X12519286Y-10509000D01*
X12528809Y-10518524D01*
X12538333Y-10537571D01*
X12547857Y-10575667D01*
X12547857Y-10623286D01*
X12538333Y-10661381D01*
X12528809Y-10680429D01*
X12519286Y-10689952D01*
X12500238Y-10699476D01*
X12481190Y-10699476D01*
X12462143Y-10689952D01*
X12452619Y-10680429D01*
X12443095Y-10661381D01*
X12433571Y-10623286D01*
X12433571Y-10575667D01*
X12443095Y-10537571D01*
X12452619Y-10518524D01*
X12462143Y-10509000D01*
X12481190Y-10499476D01*
X12614524Y-10499476D02*
X12738333Y-10499476D01*
X12671667Y-10575667D01*
X12700238Y-10575667D01*
X12719286Y-10585190D01*
X12728809Y-10594714D01*
X12738333Y-10613762D01*
X12738333Y-10661381D01*
X12728809Y-10680429D01*
X12719286Y-10689952D01*
X12700238Y-10699476D01*
X12643095Y-10699476D01*
X12624048Y-10689952D01*
X12614524Y-10680429D01*
X12833571Y-10699476D02*
X12871667Y-10699476D01*
X12890714Y-10689952D01*
X12900238Y-10680429D01*
X12919286Y-10651857D01*
X12928809Y-10613762D01*
X12928809Y-10537571D01*
X12919286Y-10518524D01*
X12909762Y-10509000D01*
X12890714Y-10499476D01*
X12852619Y-10499476D01*
X12833571Y-10509000D01*
X12824048Y-10518524D01*
X12814524Y-10537571D01*
X12814524Y-10585190D01*
X12824048Y-10604238D01*
X12833571Y-10613762D01*
X12852619Y-10623286D01*
X12890714Y-10623286D01*
X12909762Y-10613762D01*
X12919286Y-10604238D01*
X12928809Y-10585190D01*
X13100238Y-10566143D02*
X13100238Y-10699476D01*
X13052619Y-10489952D02*
X13005000Y-10632810D01*
X13128809Y-10632810D01*
X13195476Y-10499476D02*
X13195476Y-10537571D01*
X13271667Y-10499476D02*
X13271667Y-10537571D01*
X13566905Y-10775667D02*
X13557381Y-10766143D01*
X13538333Y-10737571D01*
X13528809Y-10718524D01*
X13519286Y-10689952D01*
X13509762Y-10642333D01*
X13509762Y-10604238D01*
X13519286Y-10556619D01*
X13528809Y-10528048D01*
X13538333Y-10509000D01*
X13557381Y-10480429D01*
X13566905Y-10470905D01*
X13728809Y-10499476D02*
X13690714Y-10499476D01*
X13671667Y-10509000D01*
X13662143Y-10518524D01*
X13643095Y-10547095D01*
X13633571Y-10585190D01*
X13633571Y-10661381D01*
X13643095Y-10680429D01*
X13652619Y-10689952D01*
X13671667Y-10699476D01*
X13709762Y-10699476D01*
X13728809Y-10689952D01*
X13738333Y-10680429D01*
X13747857Y-10661381D01*
X13747857Y-10613762D01*
X13738333Y-10594714D01*
X13728809Y-10585190D01*
X13709762Y-10575667D01*
X13671667Y-10575667D01*
X13652619Y-10585190D01*
X13643095Y-10594714D01*
X13633571Y-10613762D01*
X13985952Y-10699476D02*
X13985952Y-10499476D01*
X14071667Y-10699476D02*
X14071667Y-10594714D01*
X14062143Y-10575667D01*
X14043095Y-10566143D01*
X14014524Y-10566143D01*
X13995476Y-10575667D01*
X13985952Y-10585190D01*
X14195476Y-10699476D02*
X14176428Y-10689952D01*
X14166905Y-10680429D01*
X14157381Y-10661381D01*
X14157381Y-10604238D01*
X14166905Y-10585190D01*
X14176428Y-10575667D01*
X14195476Y-10566143D01*
X14224048Y-10566143D01*
X14243095Y-10575667D01*
X14252619Y-10585190D01*
X14262143Y-10604238D01*
X14262143Y-10661381D01*
X14252619Y-10680429D01*
X14243095Y-10689952D01*
X14224048Y-10699476D01*
X14195476Y-10699476D01*
X14376428Y-10699476D02*
X14357381Y-10689952D01*
X14347857Y-10670905D01*
X14347857Y-10499476D01*
X14528809Y-10689952D02*
X14509762Y-10699476D01*
X14471667Y-10699476D01*
X14452619Y-10689952D01*
X14443095Y-10670905D01*
X14443095Y-10594714D01*
X14452619Y-10575667D01*
X14471667Y-10566143D01*
X14509762Y-10566143D01*
X14528809Y-10575667D01*
X14538333Y-10594714D01*
X14538333Y-10613762D01*
X14443095Y-10632810D01*
X14614524Y-10689952D02*
X14633571Y-10699476D01*
X14671667Y-10699476D01*
X14690714Y-10689952D01*
X14700238Y-10670905D01*
X14700238Y-10661381D01*
X14690714Y-10642333D01*
X14671667Y-10632810D01*
X14643095Y-10632810D01*
X14624048Y-10623286D01*
X14614524Y-10604238D01*
X14614524Y-10594714D01*
X14624048Y-10575667D01*
X14643095Y-10566143D01*
X14671667Y-10566143D01*
X14690714Y-10575667D01*
X14766905Y-10775667D02*
X14776428Y-10766143D01*
X14795476Y-10737571D01*
X14805000Y-10718524D01*
X14814524Y-10689952D01*
X14824048Y-10642333D01*
X14824048Y-10604238D01*
X14814524Y-10556619D01*
X14805000Y-10528048D01*
X14795476Y-10509000D01*
X14776428Y-10480429D01*
X14766905Y-10470905D01*
X9895000Y-10773000D02*
X9895000Y-10973000D01*
X9795000Y-10873000D02*
X9995000Y-10873000D01*
X10243095Y-10782524D02*
X10252619Y-10773000D01*
X10271667Y-10763476D01*
X10319286Y-10763476D01*
X10338333Y-10773000D01*
X10347857Y-10782524D01*
X10357381Y-10801571D01*
X10357381Y-10820619D01*
X10347857Y-10849190D01*
X10233571Y-10963476D01*
X10357381Y-10963476D01*
X10443095Y-10944429D02*
X10452619Y-10953952D01*
X10443095Y-10963476D01*
X10433571Y-10953952D01*
X10443095Y-10944429D01*
X10443095Y-10963476D01*
X10633571Y-10763476D02*
X10538333Y-10763476D01*
X10528810Y-10858714D01*
X10538333Y-10849190D01*
X10557381Y-10839667D01*
X10605000Y-10839667D01*
X10624048Y-10849190D01*
X10633571Y-10858714D01*
X10643095Y-10877762D01*
X10643095Y-10925381D01*
X10633571Y-10944429D01*
X10624048Y-10953952D01*
X10605000Y-10963476D01*
X10557381Y-10963476D01*
X10538333Y-10953952D01*
X10528810Y-10944429D01*
X10766905Y-10763476D02*
X10785952Y-10763476D01*
X10805000Y-10773000D01*
X10814524Y-10782524D01*
X10824048Y-10801571D01*
X10833571Y-10839667D01*
X10833571Y-10887286D01*
X10824048Y-10925381D01*
X10814524Y-10944429D01*
X10805000Y-10953952D01*
X10785952Y-10963476D01*
X10766905Y-10963476D01*
X10747857Y-10953952D01*
X10738333Y-10944429D01*
X10728810Y-10925381D01*
X10719286Y-10887286D01*
X10719286Y-10839667D01*
X10728810Y-10801571D01*
X10738333Y-10782524D01*
X10747857Y-10773000D01*
X10766905Y-10763476D01*
X10957381Y-10763476D02*
X10976429Y-10763476D01*
X10995476Y-10773000D01*
X11005000Y-10782524D01*
X11014524Y-10801571D01*
X11024048Y-10839667D01*
X11024048Y-10887286D01*
X11014524Y-10925381D01*
X11005000Y-10944429D01*
X10995476Y-10953952D01*
X10976429Y-10963476D01*
X10957381Y-10963476D01*
X10938333Y-10953952D01*
X10928810Y-10944429D01*
X10919286Y-10925381D01*
X10909762Y-10887286D01*
X10909762Y-10839667D01*
X10919286Y-10801571D01*
X10928810Y-10782524D01*
X10938333Y-10773000D01*
X10957381Y-10763476D01*
X11109762Y-10963476D02*
X11109762Y-10830143D01*
X11109762Y-10849190D02*
X11119286Y-10839667D01*
X11138333Y-10830143D01*
X11166905Y-10830143D01*
X11185952Y-10839667D01*
X11195476Y-10858714D01*
X11195476Y-10963476D01*
X11195476Y-10858714D02*
X11205000Y-10839667D01*
X11224048Y-10830143D01*
X11252619Y-10830143D01*
X11271667Y-10839667D01*
X11281190Y-10858714D01*
X11281190Y-10963476D01*
X11376428Y-10963476D02*
X11376428Y-10830143D01*
X11376428Y-10849190D02*
X11385952Y-10839667D01*
X11405000Y-10830143D01*
X11433571Y-10830143D01*
X11452619Y-10839667D01*
X11462143Y-10858714D01*
X11462143Y-10963476D01*
X11462143Y-10858714D02*
X11471667Y-10839667D01*
X11490714Y-10830143D01*
X11519286Y-10830143D01*
X11538333Y-10839667D01*
X11547857Y-10858714D01*
X11547857Y-10963476D01*
X11938333Y-10753952D02*
X11766905Y-11011095D01*
X12195476Y-10763476D02*
X12214524Y-10763476D01*
X12233571Y-10773000D01*
X12243095Y-10782524D01*
X12252619Y-10801571D01*
X12262143Y-10839667D01*
X12262143Y-10887286D01*
X12252619Y-10925381D01*
X12243095Y-10944429D01*
X12233571Y-10953952D01*
X12214524Y-10963476D01*
X12195476Y-10963476D01*
X12176428Y-10953952D01*
X12166905Y-10944429D01*
X12157381Y-10925381D01*
X12147857Y-10887286D01*
X12147857Y-10839667D01*
X12157381Y-10801571D01*
X12166905Y-10782524D01*
X12176428Y-10773000D01*
X12195476Y-10763476D01*
X12347857Y-10944429D02*
X12357381Y-10953952D01*
X12347857Y-10963476D01*
X12338333Y-10953952D01*
X12347857Y-10944429D01*
X12347857Y-10963476D01*
X12481190Y-10763476D02*
X12500238Y-10763476D01*
X12519286Y-10773000D01*
X12528809Y-10782524D01*
X12538333Y-10801571D01*
X12547857Y-10839667D01*
X12547857Y-10887286D01*
X12538333Y-10925381D01*
X12528809Y-10944429D01*
X12519286Y-10953952D01*
X12500238Y-10963476D01*
X12481190Y-10963476D01*
X12462143Y-10953952D01*
X12452619Y-10944429D01*
X12443095Y-10925381D01*
X12433571Y-10887286D01*
X12433571Y-10839667D01*
X12443095Y-10801571D01*
X12452619Y-10782524D01*
X12462143Y-10773000D01*
X12481190Y-10763476D01*
X12643095Y-10963476D02*
X12681190Y-10963476D01*
X12700238Y-10953952D01*
X12709762Y-10944429D01*
X12728809Y-10915857D01*
X12738333Y-10877762D01*
X12738333Y-10801571D01*
X12728809Y-10782524D01*
X12719286Y-10773000D01*
X12700238Y-10763476D01*
X12662143Y-10763476D01*
X12643095Y-10773000D01*
X12633571Y-10782524D01*
X12624048Y-10801571D01*
X12624048Y-10849190D01*
X12633571Y-10868238D01*
X12643095Y-10877762D01*
X12662143Y-10887286D01*
X12700238Y-10887286D01*
X12719286Y-10877762D01*
X12728809Y-10868238D01*
X12738333Y-10849190D01*
X12852619Y-10849190D02*
X12833571Y-10839667D01*
X12824048Y-10830143D01*
X12814524Y-10811095D01*
X12814524Y-10801571D01*
X12824048Y-10782524D01*
X12833571Y-10773000D01*
X12852619Y-10763476D01*
X12890714Y-10763476D01*
X12909762Y-10773000D01*
X12919286Y-10782524D01*
X12928809Y-10801571D01*
X12928809Y-10811095D01*
X12919286Y-10830143D01*
X12909762Y-10839667D01*
X12890714Y-10849190D01*
X12852619Y-10849190D01*
X12833571Y-10858714D01*
X12824048Y-10868238D01*
X12814524Y-10887286D01*
X12814524Y-10925381D01*
X12824048Y-10944429D01*
X12833571Y-10953952D01*
X12852619Y-10963476D01*
X12890714Y-10963476D01*
X12909762Y-10953952D01*
X12919286Y-10944429D01*
X12928809Y-10925381D01*
X12928809Y-10887286D01*
X12919286Y-10868238D01*
X12909762Y-10858714D01*
X12890714Y-10849190D01*
X13100238Y-10830143D02*
X13100238Y-10963476D01*
X13052619Y-10753952D02*
X13005000Y-10896810D01*
X13128809Y-10896810D01*
X13195476Y-10763476D02*
X13195476Y-10801571D01*
X13271667Y-10763476D02*
X13271667Y-10801571D01*
X13566905Y-11039667D02*
X13557381Y-11030143D01*
X13538333Y-11001571D01*
X13528809Y-10982524D01*
X13519286Y-10953952D01*
X13509762Y-10906333D01*
X13509762Y-10868238D01*
X13519286Y-10820619D01*
X13528809Y-10792048D01*
X13538333Y-10773000D01*
X13557381Y-10744429D01*
X13566905Y-10734905D01*
X13633571Y-10782524D02*
X13643095Y-10773000D01*
X13662143Y-10763476D01*
X13709762Y-10763476D01*
X13728809Y-10773000D01*
X13738333Y-10782524D01*
X13747857Y-10801571D01*
X13747857Y-10820619D01*
X13738333Y-10849190D01*
X13624048Y-10963476D01*
X13747857Y-10963476D01*
X13985952Y-10963476D02*
X13985952Y-10763476D01*
X14071667Y-10963476D02*
X14071667Y-10858714D01*
X14062143Y-10839667D01*
X14043095Y-10830143D01*
X14014524Y-10830143D01*
X13995476Y-10839667D01*
X13985952Y-10849190D01*
X14195476Y-10963476D02*
X14176428Y-10953952D01*
X14166905Y-10944429D01*
X14157381Y-10925381D01*
X14157381Y-10868238D01*
X14166905Y-10849190D01*
X14176428Y-10839667D01*
X14195476Y-10830143D01*
X14224048Y-10830143D01*
X14243095Y-10839667D01*
X14252619Y-10849190D01*
X14262143Y-10868238D01*
X14262143Y-10925381D01*
X14252619Y-10944429D01*
X14243095Y-10953952D01*
X14224048Y-10963476D01*
X14195476Y-10963476D01*
X14376428Y-10963476D02*
X14357381Y-10953952D01*
X14347857Y-10934905D01*
X14347857Y-10763476D01*
X14528809Y-10953952D02*
X14509762Y-10963476D01*
X14471667Y-10963476D01*
X14452619Y-10953952D01*
X14443095Y-10934905D01*
X14443095Y-10858714D01*
X14452619Y-10839667D01*
X14471667Y-10830143D01*
X14509762Y-10830143D01*
X14528809Y-10839667D01*
X14538333Y-10858714D01*
X14538333Y-10877762D01*
X14443095Y-10896810D01*
X14614524Y-10953952D02*
X14633571Y-10963476D01*
X14671667Y-10963476D01*
X14690714Y-10953952D01*
X14700238Y-10934905D01*
X14700238Y-10925381D01*
X14690714Y-10906333D01*
X14671667Y-10896810D01*
X14643095Y-10896810D01*
X14624048Y-10887286D01*
X14614524Y-10868238D01*
X14614524Y-10858714D01*
X14624048Y-10839667D01*
X14643095Y-10830143D01*
X14671667Y-10830143D01*
X14690714Y-10839667D01*
X14766905Y-11039667D02*
X14776428Y-11030143D01*
X14795476Y-11001571D01*
X14805000Y-10982524D01*
X14814524Y-10953952D01*
X14824048Y-10906333D01*
X14824048Y-10868238D01*
X14814524Y-10820619D01*
X14805000Y-10792048D01*
X14795476Y-10773000D01*
X14776428Y-10744429D01*
X14766905Y-10734905D01*
M02*
