%TF.GenerationSoftware,KiCad,Pcbnew,6.0.9-8da3e8f707~116~ubuntu22.04.1*%
%TF.CreationDate,2022-11-08T11:47:22+01:00*%
%TF.ProjectId,PCB-lijnvolger,5043422d-6c69-46a6-9e76-6f6c6765722e,1.0*%
%TF.SameCoordinates,Original*%
%TF.FileFunction,Drillmap*%
%TF.FilePolarity,Positive*%
%FSLAX45Y45*%
G04 Gerber Fmt 4.5, Leading zero omitted, Abs format (unit mm)*
G04 Created by KiCad (PCBNEW 6.0.9-8da3e8f707~116~ubuntu22.04.1) date 2022-11-08 11:47:22*
%MOMM*%
%LPD*%
G01*
G04 APERTURE LIST*
%ADD10C,0.100000*%
%ADD11C,0.200000*%
G04 APERTURE END LIST*
D10*
X10000000Y-8000000D02*
X16700000Y-8000000D01*
X16700000Y-8000000D02*
X16700000Y-9700000D01*
X16700000Y-9700000D02*
X10000000Y-9700000D01*
X10000000Y-9700000D02*
X10000000Y-8000000D01*
D11*
X10252619Y-10015476D02*
X10252619Y-9815476D01*
X10300238Y-9815476D01*
X10328810Y-9825000D01*
X10347857Y-9844048D01*
X10357381Y-9863095D01*
X10366905Y-9901190D01*
X10366905Y-9929762D01*
X10357381Y-9967857D01*
X10347857Y-9986905D01*
X10328810Y-10005952D01*
X10300238Y-10015476D01*
X10252619Y-10015476D01*
X10452619Y-10015476D02*
X10452619Y-9882143D01*
X10452619Y-9920238D02*
X10462143Y-9901190D01*
X10471667Y-9891667D01*
X10490714Y-9882143D01*
X10509762Y-9882143D01*
X10576429Y-10015476D02*
X10576429Y-9882143D01*
X10576429Y-9815476D02*
X10566905Y-9825000D01*
X10576429Y-9834524D01*
X10585952Y-9825000D01*
X10576429Y-9815476D01*
X10576429Y-9834524D01*
X10700238Y-10015476D02*
X10681190Y-10005952D01*
X10671667Y-9986905D01*
X10671667Y-9815476D01*
X10805000Y-10015476D02*
X10785952Y-10005952D01*
X10776429Y-9986905D01*
X10776429Y-9815476D01*
X11033571Y-10015476D02*
X11033571Y-9815476D01*
X11100238Y-9958333D01*
X11166905Y-9815476D01*
X11166905Y-10015476D01*
X11347857Y-10015476D02*
X11347857Y-9910714D01*
X11338333Y-9891667D01*
X11319286Y-9882143D01*
X11281190Y-9882143D01*
X11262143Y-9891667D01*
X11347857Y-10005952D02*
X11328809Y-10015476D01*
X11281190Y-10015476D01*
X11262143Y-10005952D01*
X11252619Y-9986905D01*
X11252619Y-9967857D01*
X11262143Y-9948810D01*
X11281190Y-9939286D01*
X11328809Y-9939286D01*
X11347857Y-9929762D01*
X11443095Y-9882143D02*
X11443095Y-10082143D01*
X11443095Y-9891667D02*
X11462143Y-9882143D01*
X11500238Y-9882143D01*
X11519286Y-9891667D01*
X11528809Y-9901190D01*
X11538333Y-9920238D01*
X11538333Y-9977381D01*
X11528809Y-9996429D01*
X11519286Y-10005952D01*
X11500238Y-10015476D01*
X11462143Y-10015476D01*
X11443095Y-10005952D01*
X11624048Y-9996429D02*
X11633571Y-10005952D01*
X11624048Y-10015476D01*
X11614524Y-10005952D01*
X11624048Y-9996429D01*
X11624048Y-10015476D01*
X11624048Y-9891667D02*
X11633571Y-9901190D01*
X11624048Y-9910714D01*
X11614524Y-9901190D01*
X11624048Y-9891667D01*
X11624048Y-9910714D01*
M02*
