G04 #@! TF.GenerationSoftware,KiCad,Pcbnew,6.0.9-8da3e8f707~116~ubuntu22.04.1*
G04 #@! TF.CreationDate,2022-11-08T11:47:18+01:00*
G04 #@! TF.ProjectId,PCB-lijnvolger,5043422d-6c69-46a6-9e76-6f6c6765722e,1.0*
G04 #@! TF.SameCoordinates,Original*
G04 #@! TF.FileFunction,Copper,L2,Bot*
G04 #@! TF.FilePolarity,Positive*
%FSLAX46Y46*%
G04 Gerber Fmt 4.6, Leading zero omitted, Abs format (unit mm)*
G04 Created by KiCad (PCBNEW 6.0.9-8da3e8f707~116~ubuntu22.04.1) date 2022-11-08 11:47:18*
%MOMM*%
%LPD*%
G01*
G04 APERTURE LIST*
G04 Aperture macros list*
%AMRoundRect*
0 Rectangle with rounded corners*
0 $1 Rounding radius*
0 $2 $3 $4 $5 $6 $7 $8 $9 X,Y pos of 4 corners*
0 Add a 4 corners polygon primitive as box body*
4,1,4,$2,$3,$4,$5,$6,$7,$8,$9,$2,$3,0*
0 Add four circle primitives for the rounded corners*
1,1,$1+$1,$2,$3*
1,1,$1+$1,$4,$5*
1,1,$1+$1,$6,$7*
1,1,$1+$1,$8,$9*
0 Add four rect primitives between the rounded corners*
20,1,$1+$1,$2,$3,$4,$5,0*
20,1,$1+$1,$4,$5,$6,$7,0*
20,1,$1+$1,$6,$7,$8,$9,0*
20,1,$1+$1,$8,$9,$2,$3,0*%
G04 Aperture macros list end*
G04 #@! TA.AperFunction,ComponentPad*
%ADD10C,5.000000*%
G04 #@! TD*
G04 #@! TA.AperFunction,ComponentPad*
%ADD11R,1.700000X1.700000*%
G04 #@! TD*
G04 #@! TA.AperFunction,ComponentPad*
%ADD12O,1.700000X1.700000*%
G04 #@! TD*
G04 #@! TA.AperFunction,SMDPad,CuDef*
%ADD13RoundRect,0.250000X0.475000X-0.337500X0.475000X0.337500X-0.475000X0.337500X-0.475000X-0.337500X0*%
G04 #@! TD*
G04 #@! TA.AperFunction,SMDPad,CuDef*
%ADD14R,1.295400X0.889000*%
G04 #@! TD*
G04 #@! TA.AperFunction,SMDPad,CuDef*
%ADD15RoundRect,0.250000X0.450000X-0.350000X0.450000X0.350000X-0.450000X0.350000X-0.450000X-0.350000X0*%
G04 #@! TD*
G04 #@! TA.AperFunction,ViaPad*
%ADD16C,0.800000*%
G04 #@! TD*
G04 #@! TA.AperFunction,Conductor*
%ADD17C,0.250000*%
G04 #@! TD*
G04 APERTURE END LIST*
D10*
X163700000Y-93700000D03*
D11*
X158775000Y-92325000D03*
D12*
X158775000Y-94865000D03*
X156235000Y-92325000D03*
X156235000Y-94865000D03*
X153695000Y-92325000D03*
X153695000Y-94865000D03*
D10*
X103300000Y-93700000D03*
D13*
X154086750Y-88032500D03*
X154086750Y-85957500D03*
D14*
X147651000Y-82023001D03*
X147651000Y-84092999D03*
X144349000Y-84092999D03*
X144349000Y-82023001D03*
X156083000Y-82023001D03*
X156083000Y-84092999D03*
X152781000Y-84092999D03*
X152781000Y-82023001D03*
D15*
X147732000Y-87995000D03*
X147732000Y-85995000D03*
D13*
X162814000Y-88032500D03*
X162814000Y-85957500D03*
X120300000Y-88032500D03*
X120300000Y-85957500D03*
D15*
X130932000Y-87995000D03*
X130932000Y-85995000D03*
X105232000Y-87995000D03*
X105232000Y-85995000D03*
D13*
X103200000Y-88032500D03*
X103200000Y-85957500D03*
D14*
X113986820Y-82023001D03*
X113986820Y-84092999D03*
X110684820Y-84092999D03*
X110684820Y-82023001D03*
X164719000Y-82023001D03*
X164719000Y-84092999D03*
X161417000Y-84092999D03*
X161417000Y-82023001D03*
D13*
X111878000Y-88032500D03*
X111878000Y-85957500D03*
D14*
X122251000Y-82023001D03*
X122251000Y-84092999D03*
X118949000Y-84092999D03*
X118949000Y-82023001D03*
X139319000Y-82023001D03*
X139319000Y-84092999D03*
X136017000Y-84092999D03*
X136017000Y-82023001D03*
D15*
X139264000Y-87995000D03*
X139264000Y-85995000D03*
D13*
X145700000Y-88032500D03*
X145700000Y-85957500D03*
D15*
X164846000Y-87995000D03*
X164846000Y-85995000D03*
D14*
X130937000Y-82023001D03*
X130937000Y-84092999D03*
X127635000Y-84092999D03*
X127635000Y-82023001D03*
D15*
X113910000Y-87995000D03*
X113910000Y-85995000D03*
X156118750Y-87995000D03*
X156118750Y-85995000D03*
D13*
X128900000Y-88032500D03*
X128900000Y-85957500D03*
D15*
X122332000Y-87995000D03*
X122332000Y-85995000D03*
D14*
X105351000Y-82023001D03*
X105351000Y-84092999D03*
X102049000Y-84092999D03*
X102049000Y-82023001D03*
D13*
X137232000Y-88032500D03*
X137232000Y-85957500D03*
D16*
X149400000Y-82000000D03*
X132700000Y-82100000D03*
X160887701Y-91487701D03*
X115700000Y-82100000D03*
X107000000Y-82000000D03*
X159500000Y-82000000D03*
X124100000Y-82000000D03*
X141000000Y-82000000D03*
X158900000Y-85550000D03*
X140800000Y-94900000D03*
X107250000Y-94800000D03*
X124600000Y-93500000D03*
X150950000Y-86100000D03*
X148500000Y-91400000D03*
X110300000Y-85900000D03*
X118500000Y-85950000D03*
X145800000Y-90924500D03*
X134686643Y-92870500D03*
X135600000Y-93400000D03*
X123177888Y-94292015D03*
X129032801Y-96138970D03*
X123300000Y-93300000D03*
X126754477Y-94672425D03*
X133700000Y-95100000D03*
X132100000Y-96100000D03*
X133000000Y-91300000D03*
X110900000Y-91300000D03*
D17*
X106976999Y-82023001D02*
X107000000Y-82000000D01*
X159500000Y-82000000D02*
X159651799Y-82000000D01*
X115623001Y-82023001D02*
X115700000Y-82100000D01*
X163642001Y-83100000D02*
X164719000Y-82023001D01*
X160751799Y-83100000D02*
X163642001Y-83100000D01*
X159476999Y-82023001D02*
X159500000Y-82000000D01*
X161487701Y-91487701D02*
X163700000Y-93700000D01*
X159651799Y-82000000D02*
X160751799Y-83100000D01*
X113986820Y-82023001D02*
X115623001Y-82023001D01*
X149376999Y-82023001D02*
X149400000Y-82000000D01*
X147651000Y-82023001D02*
X149376999Y-82023001D01*
X130937000Y-82023001D02*
X132623001Y-82023001D01*
X156083000Y-82023001D02*
X159476999Y-82023001D01*
X139319000Y-82023001D02*
X140976999Y-82023001D01*
X105351000Y-82023001D02*
X106976999Y-82023001D01*
X140976999Y-82023001D02*
X141000000Y-82000000D01*
X122251000Y-82023001D02*
X124076999Y-82023001D01*
X132623001Y-82023001D02*
X132700000Y-82100000D01*
X124076999Y-82023001D02*
X124100000Y-82000000D01*
X160887701Y-91487701D02*
X161487701Y-91487701D01*
X129932500Y-87000000D02*
X133400000Y-87000000D01*
X146732500Y-87000000D02*
X150800000Y-87000000D01*
X128900000Y-88032500D02*
X129932500Y-87000000D01*
X155119250Y-87000000D02*
X160600000Y-87000000D01*
X112910500Y-87000000D02*
X116000000Y-87000000D01*
X162814000Y-88032500D02*
X163846500Y-87000000D01*
X154086750Y-88032500D02*
X155119250Y-87000000D01*
X145700000Y-88032500D02*
X146732500Y-87000000D01*
X111878000Y-88032500D02*
X112910500Y-87000000D01*
X163846500Y-87000000D02*
X166100000Y-87000000D01*
X154150250Y-86100000D02*
X156049750Y-86100000D01*
X156083000Y-84092999D02*
X156083000Y-85957500D01*
X164719000Y-84092999D02*
X164719000Y-85868000D01*
X164719000Y-85868000D02*
X164846000Y-85995000D01*
X164808500Y-85957500D02*
X164846000Y-85995000D01*
X162814000Y-85957500D02*
X164808500Y-85957500D01*
X113853000Y-84111998D02*
X113853000Y-86193500D01*
X114289500Y-85757000D02*
X113813500Y-86233000D01*
X114164000Y-85757000D02*
X112121500Y-85757000D01*
X113853000Y-86193500D02*
X113813500Y-86233000D01*
X105344000Y-84111998D02*
X105344000Y-86421000D01*
X103242000Y-86000000D02*
X105401000Y-86000000D01*
X122301000Y-84092999D02*
X122301000Y-85957500D01*
X120281500Y-86106000D02*
X122181000Y-86106000D01*
X130937000Y-84092999D02*
X130937000Y-85979000D01*
X130928000Y-85995000D02*
X129007000Y-85995000D01*
X147692000Y-85995000D02*
X145792500Y-85995000D01*
X147635000Y-84092999D02*
X147635000Y-85891500D01*
X139467500Y-86106000D02*
X139467500Y-84241499D01*
X137299500Y-86106000D02*
X139199000Y-86106000D01*
X139467500Y-84241499D02*
X139319000Y-84092999D01*
X152781000Y-87119000D02*
X152781000Y-84092999D01*
X148500000Y-91400000D02*
X152781000Y-87119000D01*
X110300000Y-84477819D02*
X110684820Y-84092999D01*
X110300000Y-85900000D02*
X110300000Y-84477819D01*
X118500000Y-84541999D02*
X118949000Y-84092999D01*
X118500000Y-85950000D02*
X118500000Y-84541999D01*
X144349000Y-89473500D02*
X144349000Y-84092999D01*
X145800000Y-90924500D02*
X144349000Y-89473500D01*
X152781000Y-82023001D02*
X153550500Y-82792501D01*
X160692999Y-84092999D02*
X161417000Y-84092999D01*
X159392501Y-82792501D02*
X160692999Y-84092999D01*
X153550500Y-82792501D02*
X159392501Y-82792501D01*
X109384322Y-83323499D02*
X110684820Y-82023001D01*
X102818500Y-83323499D02*
X109384322Y-83323499D01*
X102049000Y-84092999D02*
X102818500Y-83323499D01*
X127000000Y-83000000D02*
X127635000Y-83635000D01*
X118949000Y-82533199D02*
X119415801Y-83000000D01*
X118949000Y-82023001D02*
X118949000Y-82533199D01*
X127635000Y-83635000D02*
X127635000Y-84092999D01*
X119415801Y-83000000D02*
X127000000Y-83000000D01*
X137317498Y-82792501D02*
X143579500Y-82792501D01*
X143579500Y-82792501D02*
X144349000Y-82023001D01*
X136017000Y-84092999D02*
X137317498Y-82792501D01*
X135407143Y-92150000D02*
X149250000Y-92150000D01*
X149250000Y-92150000D02*
X152455000Y-88945000D01*
X152455000Y-88945000D02*
X155168750Y-88945000D01*
X155168750Y-88945000D02*
X156118750Y-87995000D01*
X134686643Y-92870500D02*
X135407143Y-92150000D01*
X149436396Y-92600000D02*
X152636396Y-89400000D01*
X136400000Y-92600000D02*
X149436396Y-92600000D01*
X135600000Y-93400000D02*
X136400000Y-92600000D01*
X163441000Y-89400000D02*
X164846000Y-87995000D01*
X152636396Y-89400000D02*
X163441000Y-89400000D01*
X115969695Y-87995000D02*
X113910000Y-87995000D01*
X123177888Y-94292015D02*
X122266710Y-94292015D01*
X122266710Y-94292015D02*
X115969695Y-87995000D01*
X128993831Y-96100000D02*
X113337000Y-96100000D01*
X129032801Y-96138970D02*
X128993831Y-96100000D01*
X113337000Y-96100000D02*
X105232000Y-87995000D01*
X122549000Y-93300000D02*
X122332000Y-93083000D01*
X123300000Y-93300000D02*
X122549000Y-93300000D01*
X122332000Y-93083000D02*
X122332000Y-87995000D01*
X130932000Y-90494902D02*
X130932000Y-87995000D01*
X126754477Y-94672425D02*
X130932000Y-90494902D01*
X147732000Y-87995000D02*
X147732000Y-90017805D01*
X134882338Y-91649500D02*
X133700000Y-92831838D01*
X146100305Y-91649500D02*
X134882338Y-91649500D01*
X147732000Y-90017805D02*
X146100305Y-91649500D01*
X133700000Y-92831838D02*
X133700000Y-95100000D01*
X132100000Y-96100000D02*
X132100000Y-93300000D01*
X137900000Y-90100000D02*
X139264000Y-88736000D01*
X139264000Y-88736000D02*
X139264000Y-87995000D01*
X135300000Y-90100000D02*
X137900000Y-90100000D01*
X132100000Y-93300000D02*
X135300000Y-90100000D01*
X133000000Y-91300000D02*
X128902575Y-95397425D01*
X114997425Y-95397425D02*
X110900000Y-91300000D01*
X128902575Y-95397425D02*
X114997425Y-95397425D01*
G04 #@! TA.AperFunction,Conductor*
G36*
X166433621Y-80528502D02*
G01*
X166480114Y-80582158D01*
X166491500Y-80634500D01*
X166491500Y-92046451D01*
X166471498Y-92114572D01*
X166417842Y-92161065D01*
X166347568Y-92171169D01*
X166282988Y-92141675D01*
X166256052Y-92108878D01*
X166229212Y-92061823D01*
X166227417Y-92058676D01*
X166221372Y-92050446D01*
X166024161Y-91781978D01*
X166022018Y-91779060D01*
X165930747Y-91680840D01*
X165788309Y-91527559D01*
X165785842Y-91524904D01*
X165522019Y-91299578D01*
X165234047Y-91106069D01*
X165196023Y-91086443D01*
X164968094Y-90968800D01*
X164925741Y-90946940D01*
X164601189Y-90824302D01*
X164597668Y-90823418D01*
X164597663Y-90823416D01*
X164400581Y-90773913D01*
X164264692Y-90739780D01*
X164213155Y-90732995D01*
X163924315Y-90694968D01*
X163924307Y-90694967D01*
X163920711Y-90694494D01*
X163776045Y-90692221D01*
X163577446Y-90689101D01*
X163577442Y-90689101D01*
X163573804Y-90689044D01*
X163570190Y-90689405D01*
X163570184Y-90689405D01*
X163360445Y-90710340D01*
X163228569Y-90723503D01*
X162889583Y-90797414D01*
X162886156Y-90798587D01*
X162886150Y-90798589D01*
X162607461Y-90894006D01*
X162561339Y-90909797D01*
X162248188Y-91059163D01*
X162153113Y-91118803D01*
X162084781Y-91138057D01*
X162016883Y-91117311D01*
X161997065Y-91101160D01*
X161991353Y-91095448D01*
X161983813Y-91087162D01*
X161979701Y-91080683D01*
X161958838Y-91061091D01*
X161930050Y-91034058D01*
X161927208Y-91031303D01*
X161907471Y-91011566D01*
X161904274Y-91009086D01*
X161895252Y-91001381D01*
X161889520Y-90995998D01*
X161863022Y-90971115D01*
X161856076Y-90967296D01*
X161856073Y-90967294D01*
X161845267Y-90961353D01*
X161828748Y-90950502D01*
X161826298Y-90948602D01*
X161812742Y-90938087D01*
X161805473Y-90934942D01*
X161805469Y-90934939D01*
X161772164Y-90920527D01*
X161761514Y-90915310D01*
X161722761Y-90894006D01*
X161703138Y-90888968D01*
X161684435Y-90882564D01*
X161673121Y-90877668D01*
X161673120Y-90877668D01*
X161665846Y-90874520D01*
X161658023Y-90873281D01*
X161658013Y-90873278D01*
X161622177Y-90867602D01*
X161610555Y-90865196D01*
X161568250Y-90854334D01*
X161508365Y-90818068D01*
X161508281Y-90818161D01*
X161507792Y-90817721D01*
X161505953Y-90816607D01*
X161503373Y-90813742D01*
X161503369Y-90813739D01*
X161498954Y-90808835D01*
X161403257Y-90739307D01*
X161349795Y-90700464D01*
X161349794Y-90700463D01*
X161344453Y-90696583D01*
X161338425Y-90693899D01*
X161338423Y-90693898D01*
X161176020Y-90621592D01*
X161176019Y-90621592D01*
X161169989Y-90618907D01*
X161076010Y-90598931D01*
X160989645Y-90580573D01*
X160989640Y-90580573D01*
X160983188Y-90579201D01*
X160792214Y-90579201D01*
X160785762Y-90580573D01*
X160785757Y-90580573D01*
X160699392Y-90598931D01*
X160605413Y-90618907D01*
X160599383Y-90621592D01*
X160599382Y-90621592D01*
X160436979Y-90693898D01*
X160436977Y-90693899D01*
X160430949Y-90696583D01*
X160425608Y-90700463D01*
X160425607Y-90700464D01*
X160397324Y-90721013D01*
X160276448Y-90808835D01*
X160272030Y-90813742D01*
X160272026Y-90813746D01*
X160162904Y-90934939D01*
X160148661Y-90950757D01*
X160116149Y-91007069D01*
X160106366Y-91024014D01*
X160054983Y-91073007D01*
X159985270Y-91086443D01*
X159921683Y-91061841D01*
X159897776Y-91043924D01*
X159871705Y-91024385D01*
X159735316Y-90973255D01*
X159673134Y-90966500D01*
X157876866Y-90966500D01*
X157814684Y-90973255D01*
X157678295Y-91024385D01*
X157561739Y-91111739D01*
X157474385Y-91228295D01*
X157471233Y-91236703D01*
X157429919Y-91346907D01*
X157387277Y-91403671D01*
X157320716Y-91428371D01*
X157251367Y-91413163D01*
X157218743Y-91387476D01*
X157168151Y-91331875D01*
X157168142Y-91331866D01*
X157164670Y-91328051D01*
X157160619Y-91324852D01*
X157160615Y-91324848D01*
X156993414Y-91192800D01*
X156993410Y-91192798D01*
X156989359Y-91189598D01*
X156793789Y-91081638D01*
X156788920Y-91079914D01*
X156788916Y-91079912D01*
X156588087Y-91008795D01*
X156588083Y-91008794D01*
X156583212Y-91007069D01*
X156578119Y-91006162D01*
X156578116Y-91006161D01*
X156368373Y-90968800D01*
X156368367Y-90968799D01*
X156363284Y-90967894D01*
X156289452Y-90966992D01*
X156145081Y-90965228D01*
X156145079Y-90965228D01*
X156139911Y-90965165D01*
X155919091Y-90998955D01*
X155706756Y-91068357D01*
X155508607Y-91171507D01*
X155504474Y-91174610D01*
X155504471Y-91174612D01*
X155334100Y-91302530D01*
X155329965Y-91305635D01*
X155296217Y-91340950D01*
X155182012Y-91460459D01*
X155175629Y-91467138D01*
X155068201Y-91624621D01*
X155013293Y-91669621D01*
X154942768Y-91677792D01*
X154879021Y-91646538D01*
X154858324Y-91622054D01*
X154777822Y-91497617D01*
X154777820Y-91497614D01*
X154775014Y-91493277D01*
X154624670Y-91328051D01*
X154620619Y-91324852D01*
X154620615Y-91324848D01*
X154453414Y-91192800D01*
X154453410Y-91192798D01*
X154449359Y-91189598D01*
X154253789Y-91081638D01*
X154248920Y-91079914D01*
X154248916Y-91079912D01*
X154048087Y-91008795D01*
X154048083Y-91008794D01*
X154043212Y-91007069D01*
X154038119Y-91006162D01*
X154038116Y-91006161D01*
X153828373Y-90968800D01*
X153828367Y-90968799D01*
X153823284Y-90967894D01*
X153749452Y-90966992D01*
X153605081Y-90965228D01*
X153605079Y-90965228D01*
X153599911Y-90965165D01*
X153379091Y-90998955D01*
X153166756Y-91068357D01*
X152968607Y-91171507D01*
X152964474Y-91174610D01*
X152964471Y-91174612D01*
X152794100Y-91302530D01*
X152789965Y-91305635D01*
X152756217Y-91340950D01*
X152642012Y-91460459D01*
X152635629Y-91467138D01*
X152632720Y-91471403D01*
X152632714Y-91471411D01*
X152597830Y-91522549D01*
X152509743Y-91651680D01*
X152462715Y-91752993D01*
X152423747Y-91836944D01*
X152415688Y-91854305D01*
X152355989Y-92069570D01*
X152332251Y-92291695D01*
X152332548Y-92296848D01*
X152332548Y-92296851D01*
X152339866Y-92423770D01*
X152345110Y-92514715D01*
X152346247Y-92519761D01*
X152346248Y-92519767D01*
X152358723Y-92575119D01*
X152394222Y-92732639D01*
X152406573Y-92763056D01*
X152476282Y-92934729D01*
X152478266Y-92939616D01*
X152515685Y-93000678D01*
X152592291Y-93125688D01*
X152594987Y-93130088D01*
X152741250Y-93298938D01*
X152913126Y-93441632D01*
X152941282Y-93458085D01*
X152986445Y-93484476D01*
X153035169Y-93536114D01*
X153048240Y-93605897D01*
X153021509Y-93671669D01*
X152981055Y-93705027D01*
X152968607Y-93711507D01*
X152964474Y-93714610D01*
X152964471Y-93714612D01*
X152809156Y-93831226D01*
X152789965Y-93845635D01*
X152635629Y-94007138D01*
X152632715Y-94011410D01*
X152632714Y-94011411D01*
X152586699Y-94078866D01*
X152509743Y-94191680D01*
X152415688Y-94394305D01*
X152355989Y-94609570D01*
X152332251Y-94831695D01*
X152332548Y-94836848D01*
X152332548Y-94836851D01*
X152338011Y-94931590D01*
X152345110Y-95054715D01*
X152346247Y-95059761D01*
X152346248Y-95059767D01*
X152356795Y-95106565D01*
X152394222Y-95272639D01*
X152432461Y-95366811D01*
X152472574Y-95465597D01*
X152478266Y-95479616D01*
X152480965Y-95484020D01*
X152592291Y-95665688D01*
X152594987Y-95670088D01*
X152741250Y-95838938D01*
X152834837Y-95916635D01*
X152897663Y-95968794D01*
X152913126Y-95981632D01*
X153106000Y-96094338D01*
X153314692Y-96174030D01*
X153319760Y-96175061D01*
X153319763Y-96175062D01*
X153414862Y-96194410D01*
X153533597Y-96218567D01*
X153538772Y-96218757D01*
X153538774Y-96218757D01*
X153751673Y-96226564D01*
X153751677Y-96226564D01*
X153756837Y-96226753D01*
X153761957Y-96226097D01*
X153761959Y-96226097D01*
X153973288Y-96199025D01*
X153973289Y-96199025D01*
X153978416Y-96198368D01*
X153983366Y-96196883D01*
X154187429Y-96135661D01*
X154187434Y-96135659D01*
X154192384Y-96134174D01*
X154392994Y-96035896D01*
X154574860Y-95906173D01*
X154587274Y-95893803D01*
X154714105Y-95767414D01*
X154733096Y-95748489D01*
X154792594Y-95665689D01*
X154863453Y-95567077D01*
X154864640Y-95567930D01*
X154911960Y-95524362D01*
X154981897Y-95512145D01*
X155047338Y-95539678D01*
X155075166Y-95571511D01*
X155132694Y-95665388D01*
X155138777Y-95673699D01*
X155278213Y-95834667D01*
X155285580Y-95841883D01*
X155449434Y-95977916D01*
X155457881Y-95983831D01*
X155641756Y-96091279D01*
X155651042Y-96095729D01*
X155850001Y-96171703D01*
X155859899Y-96174579D01*
X155963250Y-96195606D01*
X155977299Y-96194410D01*
X155981000Y-96184065D01*
X155981000Y-94737000D01*
X156001002Y-94668879D01*
X156054658Y-94622386D01*
X156107000Y-94611000D01*
X156363000Y-94611000D01*
X156431121Y-94631002D01*
X156477614Y-94684658D01*
X156489000Y-94737000D01*
X156489000Y-96183517D01*
X156493064Y-96197359D01*
X156506478Y-96199393D01*
X156513184Y-96198534D01*
X156523262Y-96196392D01*
X156727255Y-96135191D01*
X156736842Y-96131433D01*
X156928095Y-96037739D01*
X156936945Y-96032464D01*
X157110328Y-95908792D01*
X157118200Y-95902139D01*
X157269052Y-95751812D01*
X157275730Y-95743965D01*
X157403022Y-95566819D01*
X157404279Y-95567722D01*
X157451373Y-95524362D01*
X157521311Y-95512145D01*
X157586751Y-95539678D01*
X157614579Y-95571511D01*
X157674987Y-95670088D01*
X157821250Y-95838938D01*
X157914837Y-95916635D01*
X157977663Y-95968794D01*
X157993126Y-95981632D01*
X158186000Y-96094338D01*
X158394692Y-96174030D01*
X158399760Y-96175061D01*
X158399763Y-96175062D01*
X158494862Y-96194410D01*
X158613597Y-96218567D01*
X158618772Y-96218757D01*
X158618774Y-96218757D01*
X158831673Y-96226564D01*
X158831677Y-96226564D01*
X158836837Y-96226753D01*
X158841957Y-96226097D01*
X158841959Y-96226097D01*
X159053288Y-96199025D01*
X159053289Y-96199025D01*
X159058416Y-96198368D01*
X159063366Y-96196883D01*
X159267429Y-96135661D01*
X159267434Y-96135659D01*
X159272384Y-96134174D01*
X159472994Y-96035896D01*
X159654860Y-95906173D01*
X159667274Y-95893803D01*
X159794105Y-95767414D01*
X159813096Y-95748489D01*
X159872594Y-95665689D01*
X159940435Y-95571277D01*
X159943453Y-95567077D01*
X159947864Y-95558153D01*
X160040136Y-95371453D01*
X160040137Y-95371451D01*
X160042430Y-95366811D01*
X160107370Y-95153069D01*
X160136529Y-94931590D01*
X160136611Y-94928240D01*
X160138074Y-94868365D01*
X160138074Y-94868361D01*
X160138156Y-94865000D01*
X160119852Y-94642361D01*
X160065431Y-94425702D01*
X159976354Y-94220840D01*
X159855014Y-94033277D01*
X159847124Y-94024606D01*
X159707798Y-93871488D01*
X159676746Y-93807642D01*
X159685141Y-93737143D01*
X159730317Y-93682375D01*
X159756761Y-93668706D01*
X159863297Y-93628767D01*
X159871705Y-93625615D01*
X159988261Y-93538261D01*
X160075615Y-93421705D01*
X160126745Y-93285316D01*
X160133500Y-93223134D01*
X160133500Y-92309998D01*
X160153502Y-92241877D01*
X160207158Y-92195384D01*
X160277432Y-92185280D01*
X160333561Y-92208062D01*
X160392861Y-92251146D01*
X160430949Y-92278819D01*
X160436977Y-92281503D01*
X160436979Y-92281504D01*
X160527848Y-92321961D01*
X160605413Y-92356495D01*
X160792214Y-92396201D01*
X160798817Y-92396201D01*
X160804106Y-92396757D01*
X160869762Y-92423770D01*
X160910392Y-92481992D01*
X160913095Y-92552937D01*
X160905222Y-92575119D01*
X160899557Y-92587322D01*
X160899552Y-92587335D01*
X160898027Y-92590620D01*
X160896887Y-92594067D01*
X160819554Y-92827901D01*
X160789087Y-92920023D01*
X160788351Y-92923578D01*
X160788350Y-92923581D01*
X160723713Y-93235702D01*
X160718730Y-93259764D01*
X160709233Y-93366173D01*
X160688651Y-93596797D01*
X160687888Y-93605341D01*
X160687983Y-93608971D01*
X160687983Y-93608972D01*
X160696571Y-93936944D01*
X160696970Y-93952171D01*
X160745856Y-94295660D01*
X160833897Y-94631253D01*
X160959927Y-94954503D01*
X160961624Y-94957708D01*
X161106404Y-95231150D01*
X161122275Y-95261126D01*
X161124325Y-95264109D01*
X161124327Y-95264112D01*
X161316733Y-95544064D01*
X161316739Y-95544071D01*
X161318790Y-95547056D01*
X161429521Y-95673990D01*
X161524398Y-95782749D01*
X161546866Y-95808505D01*
X161595649Y-95852894D01*
X161799269Y-96038173D01*
X161803481Y-96042006D01*
X162085233Y-96244466D01*
X162104888Y-96255406D01*
X162154681Y-96306013D01*
X162169210Y-96375507D01*
X162143861Y-96441824D01*
X162086682Y-96483909D01*
X162043608Y-96491500D01*
X133101471Y-96491500D01*
X133033350Y-96471498D01*
X132986857Y-96417842D01*
X132976753Y-96347568D01*
X132981638Y-96326563D01*
X132988316Y-96306013D01*
X132993542Y-96289928D01*
X132994272Y-96282988D01*
X133012814Y-96106565D01*
X133013504Y-96100000D01*
X133006960Y-96037739D01*
X133000322Y-95974579D01*
X133013094Y-95904741D01*
X133061596Y-95852894D01*
X133130429Y-95835500D01*
X133199691Y-95859472D01*
X133243248Y-95891118D01*
X133249276Y-95893802D01*
X133249278Y-95893803D01*
X133411681Y-95966109D01*
X133417712Y-95968794D01*
X133490389Y-95984242D01*
X133598056Y-96007128D01*
X133598061Y-96007128D01*
X133604513Y-96008500D01*
X133795487Y-96008500D01*
X133801939Y-96007128D01*
X133801944Y-96007128D01*
X133909611Y-95984242D01*
X133982288Y-95968794D01*
X133988319Y-95966109D01*
X134150722Y-95893803D01*
X134150724Y-95893802D01*
X134156752Y-95891118D01*
X134311253Y-95778866D01*
X134315675Y-95773955D01*
X134434621Y-95641852D01*
X134434622Y-95641851D01*
X134439040Y-95636944D01*
X134534527Y-95471556D01*
X134593542Y-95289928D01*
X134594333Y-95282407D01*
X134612814Y-95106565D01*
X134613504Y-95100000D01*
X134598212Y-94954503D01*
X134594232Y-94916635D01*
X134594232Y-94916633D01*
X134593542Y-94910072D01*
X134534527Y-94728444D01*
X134512628Y-94690513D01*
X134467879Y-94613006D01*
X134439040Y-94563056D01*
X134365863Y-94481785D01*
X134335147Y-94417779D01*
X134333500Y-94397476D01*
X134333500Y-93879831D01*
X134353502Y-93811710D01*
X134407158Y-93765217D01*
X134477432Y-93755113D01*
X134485697Y-93756584D01*
X134584699Y-93777628D01*
X134584704Y-93777628D01*
X134591156Y-93779000D01*
X134697025Y-93779000D01*
X134765146Y-93799002D01*
X134806144Y-93842000D01*
X134860960Y-93936944D01*
X134865378Y-93941851D01*
X134865379Y-93941852D01*
X134947985Y-94033595D01*
X134988747Y-94078866D01*
X135143248Y-94191118D01*
X135149276Y-94193802D01*
X135149278Y-94193803D01*
X135246730Y-94237191D01*
X135317712Y-94268794D01*
X135396072Y-94285450D01*
X135498056Y-94307128D01*
X135498061Y-94307128D01*
X135504513Y-94308500D01*
X135695487Y-94308500D01*
X135701939Y-94307128D01*
X135701944Y-94307128D01*
X135803928Y-94285450D01*
X135882288Y-94268794D01*
X135953270Y-94237191D01*
X136050722Y-94193803D01*
X136050724Y-94193802D01*
X136056752Y-94191118D01*
X136211253Y-94078866D01*
X136252015Y-94033595D01*
X136334621Y-93941852D01*
X136334622Y-93941851D01*
X136339040Y-93936944D01*
X136414458Y-93806316D01*
X136431223Y-93777279D01*
X136431224Y-93777278D01*
X136434527Y-93771556D01*
X136493542Y-93589928D01*
X136500804Y-93520839D01*
X136510907Y-93424708D01*
X136537920Y-93359051D01*
X136547122Y-93348782D01*
X136625501Y-93270404D01*
X136687814Y-93236379D01*
X136714596Y-93233500D01*
X149357629Y-93233500D01*
X149368812Y-93234027D01*
X149376305Y-93235702D01*
X149384231Y-93235453D01*
X149384232Y-93235453D01*
X149444382Y-93233562D01*
X149448341Y-93233500D01*
X149476252Y-93233500D01*
X149480187Y-93233003D01*
X149480252Y-93232995D01*
X149492089Y-93232062D01*
X149524347Y-93231048D01*
X149528366Y-93230922D01*
X149536285Y-93230673D01*
X149555739Y-93225021D01*
X149575096Y-93221013D01*
X149587326Y-93219468D01*
X149587327Y-93219468D01*
X149595193Y-93218474D01*
X149602564Y-93215555D01*
X149602566Y-93215555D01*
X149636308Y-93202196D01*
X149647538Y-93198351D01*
X149682379Y-93188229D01*
X149682380Y-93188229D01*
X149689989Y-93186018D01*
X149696808Y-93181985D01*
X149696813Y-93181983D01*
X149707424Y-93175707D01*
X149725172Y-93167012D01*
X149744013Y-93159552D01*
X149779783Y-93133564D01*
X149789703Y-93127048D01*
X149820931Y-93108580D01*
X149820934Y-93108578D01*
X149827758Y-93104542D01*
X149842079Y-93090221D01*
X149857113Y-93077380D01*
X149867090Y-93070131D01*
X149873503Y-93065472D01*
X149901694Y-93031395D01*
X149909684Y-93022616D01*
X152861895Y-90070405D01*
X152924207Y-90036379D01*
X152950990Y-90033500D01*
X163362233Y-90033500D01*
X163373416Y-90034027D01*
X163380909Y-90035702D01*
X163388835Y-90035453D01*
X163388836Y-90035453D01*
X163448986Y-90033562D01*
X163452945Y-90033500D01*
X163480856Y-90033500D01*
X163484791Y-90033003D01*
X163484856Y-90032995D01*
X163496693Y-90032062D01*
X163528951Y-90031048D01*
X163532970Y-90030922D01*
X163540889Y-90030673D01*
X163560343Y-90025021D01*
X163579700Y-90021013D01*
X163591930Y-90019468D01*
X163591931Y-90019468D01*
X163599797Y-90018474D01*
X163607168Y-90015555D01*
X163607170Y-90015555D01*
X163640912Y-90002196D01*
X163652142Y-89998351D01*
X163686983Y-89988229D01*
X163686984Y-89988229D01*
X163694593Y-89986018D01*
X163701412Y-89981985D01*
X163701417Y-89981983D01*
X163712028Y-89975707D01*
X163729776Y-89967012D01*
X163748617Y-89959552D01*
X163766186Y-89946788D01*
X163784387Y-89933564D01*
X163794307Y-89927048D01*
X163825535Y-89908580D01*
X163825538Y-89908578D01*
X163832362Y-89904542D01*
X163846683Y-89890221D01*
X163861717Y-89877380D01*
X163878107Y-89865472D01*
X163883157Y-89859368D01*
X163883162Y-89859363D01*
X163906293Y-89831402D01*
X163914283Y-89822621D01*
X164596501Y-89140404D01*
X164658813Y-89106379D01*
X164685596Y-89103500D01*
X165346400Y-89103500D01*
X165349646Y-89103163D01*
X165349650Y-89103163D01*
X165445308Y-89093238D01*
X165445312Y-89093237D01*
X165452166Y-89092526D01*
X165458702Y-89090345D01*
X165458704Y-89090345D01*
X165590806Y-89046272D01*
X165619946Y-89036550D01*
X165770348Y-88943478D01*
X165895305Y-88818303D01*
X165928481Y-88764482D01*
X165984275Y-88673968D01*
X165984276Y-88673966D01*
X165988115Y-88667738D01*
X166043797Y-88499861D01*
X166054500Y-88395400D01*
X166054500Y-87594600D01*
X166054163Y-87591350D01*
X166044238Y-87495692D01*
X166044237Y-87495688D01*
X166043526Y-87488834D01*
X166035201Y-87463879D01*
X165989868Y-87328002D01*
X165987550Y-87321054D01*
X165894478Y-87170652D01*
X165807891Y-87084216D01*
X165773812Y-87021934D01*
X165778815Y-86951114D01*
X165807736Y-86906025D01*
X165890134Y-86823483D01*
X165895305Y-86818303D01*
X165901348Y-86808500D01*
X165984275Y-86673968D01*
X165984276Y-86673966D01*
X165988115Y-86667738D01*
X166043797Y-86499861D01*
X166045121Y-86486944D01*
X166054172Y-86398598D01*
X166054500Y-86395400D01*
X166054500Y-85594600D01*
X166051906Y-85569600D01*
X166044238Y-85495692D01*
X166044237Y-85495688D01*
X166043526Y-85488834D01*
X166037903Y-85471978D01*
X165989868Y-85328002D01*
X165987550Y-85321054D01*
X165894478Y-85170652D01*
X165769303Y-85045695D01*
X165769615Y-85045383D01*
X165731192Y-84991187D01*
X165727962Y-84920264D01*
X165749522Y-84874660D01*
X165766380Y-84852166D01*
X165817315Y-84784204D01*
X165868445Y-84647815D01*
X165875200Y-84585633D01*
X165875200Y-83600365D01*
X165868445Y-83538183D01*
X165817315Y-83401794D01*
X165729961Y-83285238D01*
X165613405Y-83197884D01*
X165554982Y-83175982D01*
X165498218Y-83133340D01*
X165473518Y-83066779D01*
X165488726Y-82997430D01*
X165539012Y-82947312D01*
X165554982Y-82940018D01*
X165604997Y-82921268D01*
X165613405Y-82918116D01*
X165729961Y-82830762D01*
X165817315Y-82714206D01*
X165868445Y-82577817D01*
X165875200Y-82515635D01*
X165875200Y-81530367D01*
X165868445Y-81468185D01*
X165817315Y-81331796D01*
X165729961Y-81215240D01*
X165613405Y-81127886D01*
X165477016Y-81076756D01*
X165414834Y-81070001D01*
X164023166Y-81070001D01*
X163960984Y-81076756D01*
X163824595Y-81127886D01*
X163708039Y-81215240D01*
X163620685Y-81331796D01*
X163569555Y-81468185D01*
X163562800Y-81530367D01*
X163562800Y-82231106D01*
X163542798Y-82299227D01*
X163525895Y-82320201D01*
X163416501Y-82429595D01*
X163354189Y-82463621D01*
X163327406Y-82466500D01*
X162698700Y-82466500D01*
X162630579Y-82446498D01*
X162584086Y-82392842D01*
X162572700Y-82340500D01*
X162572700Y-82295116D01*
X162568225Y-82279877D01*
X162566835Y-82278672D01*
X162559152Y-82277001D01*
X161289000Y-82277001D01*
X161220879Y-82256999D01*
X161174386Y-82203343D01*
X161163000Y-82151001D01*
X161163000Y-81750886D01*
X161671000Y-81750886D01*
X161675475Y-81766125D01*
X161676865Y-81767330D01*
X161684548Y-81769001D01*
X162554584Y-81769001D01*
X162569823Y-81764526D01*
X162571028Y-81763136D01*
X162572699Y-81755453D01*
X162572699Y-81533832D01*
X162572329Y-81527011D01*
X162566805Y-81476149D01*
X162563179Y-81460897D01*
X162518024Y-81340447D01*
X162509486Y-81324852D01*
X162432985Y-81222777D01*
X162420424Y-81210216D01*
X162318349Y-81133715D01*
X162302754Y-81125177D01*
X162182306Y-81080023D01*
X162167051Y-81076396D01*
X162116186Y-81070870D01*
X162109372Y-81070501D01*
X161689115Y-81070501D01*
X161673876Y-81074976D01*
X161672671Y-81076366D01*
X161671000Y-81084049D01*
X161671000Y-81750886D01*
X161163000Y-81750886D01*
X161163000Y-81088617D01*
X161158525Y-81073378D01*
X161157135Y-81072173D01*
X161149452Y-81070502D01*
X160724631Y-81070502D01*
X160717810Y-81070872D01*
X160666948Y-81076396D01*
X160651696Y-81080022D01*
X160531246Y-81125177D01*
X160515651Y-81133715D01*
X160413576Y-81210216D01*
X160401015Y-81222777D01*
X160321072Y-81329445D01*
X160264213Y-81371960D01*
X160193395Y-81376986D01*
X160126612Y-81338192D01*
X160111253Y-81321134D01*
X159975387Y-81222421D01*
X159962094Y-81212763D01*
X159962093Y-81212762D01*
X159956752Y-81208882D01*
X159950724Y-81206198D01*
X159950722Y-81206197D01*
X159788319Y-81133891D01*
X159788318Y-81133891D01*
X159782288Y-81131206D01*
X159688888Y-81111353D01*
X159601944Y-81092872D01*
X159601939Y-81092872D01*
X159595487Y-81091500D01*
X159404513Y-81091500D01*
X159398061Y-81092872D01*
X159398056Y-81092872D01*
X159311112Y-81111353D01*
X159217712Y-81131206D01*
X159211682Y-81133891D01*
X159211681Y-81133891D01*
X159049278Y-81206197D01*
X159049276Y-81206198D01*
X159043248Y-81208882D01*
X159037907Y-81212762D01*
X159037906Y-81212763D01*
X158994773Y-81244101D01*
X158888747Y-81321134D01*
X158884336Y-81326033D01*
X158884327Y-81326041D01*
X158864726Y-81347811D01*
X158804280Y-81385051D01*
X158771090Y-81389501D01*
X157286121Y-81389501D01*
X157218000Y-81369499D01*
X157182224Y-81331115D01*
X157181315Y-81331796D01*
X157173324Y-81321134D01*
X157093961Y-81215240D01*
X156977405Y-81127886D01*
X156841016Y-81076756D01*
X156778834Y-81070001D01*
X155387166Y-81070001D01*
X155324984Y-81076756D01*
X155188595Y-81127886D01*
X155072039Y-81215240D01*
X154984685Y-81331796D01*
X154933555Y-81468185D01*
X154926800Y-81530367D01*
X154926800Y-82033001D01*
X154906798Y-82101122D01*
X154853142Y-82147615D01*
X154800800Y-82159001D01*
X154063200Y-82159001D01*
X153995079Y-82138999D01*
X153948586Y-82085343D01*
X153937200Y-82033001D01*
X153937200Y-81530367D01*
X153930445Y-81468185D01*
X153879315Y-81331796D01*
X153791961Y-81215240D01*
X153675405Y-81127886D01*
X153539016Y-81076756D01*
X153476834Y-81070001D01*
X152085166Y-81070001D01*
X152022984Y-81076756D01*
X151886595Y-81127886D01*
X151770039Y-81215240D01*
X151682685Y-81331796D01*
X151631555Y-81468185D01*
X151624800Y-81530367D01*
X151624800Y-82515635D01*
X151631555Y-82577817D01*
X151682685Y-82714206D01*
X151770039Y-82830762D01*
X151886595Y-82918116D01*
X151895003Y-82921268D01*
X151945018Y-82940018D01*
X152001782Y-82982660D01*
X152026482Y-83049221D01*
X152011274Y-83118570D01*
X151960988Y-83168688D01*
X151945018Y-83175982D01*
X151886595Y-83197884D01*
X151770039Y-83285238D01*
X151682685Y-83401794D01*
X151631555Y-83538183D01*
X151624800Y-83600365D01*
X151624800Y-84585633D01*
X151631555Y-84647815D01*
X151682685Y-84784204D01*
X151770039Y-84900760D01*
X151886595Y-84988114D01*
X152022984Y-85039244D01*
X152030836Y-85040097D01*
X152030840Y-85040098D01*
X152035107Y-85040561D01*
X152038207Y-85041849D01*
X152038522Y-85041924D01*
X152038510Y-85041975D01*
X152100669Y-85067802D01*
X152141096Y-85126165D01*
X152147500Y-85165824D01*
X152147500Y-86804405D01*
X152127498Y-86872526D01*
X152110595Y-86893500D01*
X148549500Y-90454595D01*
X148487188Y-90488621D01*
X148460405Y-90491500D01*
X148409101Y-90491500D01*
X148340980Y-90471498D01*
X148294487Y-90417842D01*
X148284383Y-90347568D01*
X148293463Y-90315464D01*
X148299176Y-90302262D01*
X148304383Y-90291632D01*
X148325695Y-90252865D01*
X148327666Y-90245188D01*
X148327668Y-90245183D01*
X148330732Y-90233247D01*
X148337138Y-90214535D01*
X148342033Y-90203224D01*
X148345181Y-90195950D01*
X148346421Y-90188122D01*
X148346423Y-90188115D01*
X148352099Y-90152281D01*
X148354505Y-90140661D01*
X148363528Y-90105516D01*
X148363528Y-90105515D01*
X148365500Y-90097835D01*
X148365500Y-90077581D01*
X148367051Y-90057870D01*
X148368980Y-90045691D01*
X148370220Y-90037862D01*
X148366059Y-89993843D01*
X148365500Y-89981986D01*
X148365500Y-89174197D01*
X148385502Y-89106076D01*
X148439158Y-89059583D01*
X148451623Y-89054674D01*
X148499002Y-89038867D01*
X148499004Y-89038866D01*
X148505946Y-89036550D01*
X148656348Y-88943478D01*
X148781305Y-88818303D01*
X148814481Y-88764482D01*
X148870275Y-88673968D01*
X148870276Y-88673966D01*
X148874115Y-88667738D01*
X148929797Y-88499861D01*
X148940500Y-88395400D01*
X148940500Y-87594600D01*
X148940163Y-87591350D01*
X148930238Y-87495692D01*
X148930237Y-87495688D01*
X148929526Y-87488834D01*
X148921201Y-87463879D01*
X148875868Y-87328002D01*
X148873550Y-87321054D01*
X148780478Y-87170652D01*
X148693891Y-87084216D01*
X148659812Y-87021934D01*
X148664815Y-86951114D01*
X148693736Y-86906025D01*
X148776134Y-86823483D01*
X148781305Y-86818303D01*
X148787348Y-86808500D01*
X148870275Y-86673968D01*
X148870276Y-86673966D01*
X148874115Y-86667738D01*
X148929797Y-86499861D01*
X148931121Y-86486944D01*
X148940172Y-86398598D01*
X148940500Y-86395400D01*
X148940500Y-85594600D01*
X148937906Y-85569600D01*
X148930238Y-85495692D01*
X148930237Y-85495688D01*
X148929526Y-85488834D01*
X148923903Y-85471978D01*
X148875868Y-85328002D01*
X148873550Y-85321054D01*
X148780478Y-85170652D01*
X148674356Y-85064715D01*
X148640277Y-85002433D01*
X148645280Y-84931613D01*
X148662548Y-84899977D01*
X148698380Y-84852166D01*
X148749315Y-84784204D01*
X148800445Y-84647815D01*
X148807200Y-84585633D01*
X148807200Y-83600365D01*
X148800445Y-83538183D01*
X148749315Y-83401794D01*
X148661961Y-83285238D01*
X148545405Y-83197884D01*
X148486982Y-83175982D01*
X148430218Y-83133340D01*
X148405518Y-83066779D01*
X148420726Y-82997430D01*
X148471012Y-82947312D01*
X148486982Y-82940018D01*
X148536997Y-82921268D01*
X148545405Y-82918116D01*
X148661961Y-82830762D01*
X148705913Y-82772117D01*
X148762772Y-82729602D01*
X148833591Y-82724576D01*
X148880800Y-82745746D01*
X148943248Y-82791118D01*
X148949276Y-82793802D01*
X148949278Y-82793803D01*
X149111681Y-82866109D01*
X149117712Y-82868794D01*
X149204479Y-82887237D01*
X149298056Y-82907128D01*
X149298061Y-82907128D01*
X149304513Y-82908500D01*
X149495487Y-82908500D01*
X149501939Y-82907128D01*
X149501944Y-82907128D01*
X149595521Y-82887237D01*
X149682288Y-82868794D01*
X149688319Y-82866109D01*
X149850722Y-82793803D01*
X149850724Y-82793802D01*
X149856752Y-82791118D01*
X149873616Y-82778866D01*
X149953054Y-82721150D01*
X150011253Y-82678866D01*
X150102238Y-82577817D01*
X150134621Y-82541852D01*
X150134622Y-82541851D01*
X150139040Y-82536944D01*
X150218797Y-82398801D01*
X150231223Y-82377279D01*
X150231224Y-82377278D01*
X150234527Y-82371556D01*
X150293542Y-82189928D01*
X150296496Y-82161827D01*
X150312814Y-82006565D01*
X150313504Y-82000000D01*
X150304052Y-81910072D01*
X150294232Y-81816635D01*
X150294232Y-81816633D01*
X150293542Y-81810072D01*
X150234527Y-81628444D01*
X150139040Y-81463056D01*
X150029864Y-81341803D01*
X150015675Y-81326045D01*
X150015671Y-81326041D01*
X150011253Y-81321134D01*
X149875387Y-81222421D01*
X149862094Y-81212763D01*
X149862093Y-81212762D01*
X149856752Y-81208882D01*
X149850724Y-81206198D01*
X149850722Y-81206197D01*
X149688319Y-81133891D01*
X149688318Y-81133891D01*
X149682288Y-81131206D01*
X149588888Y-81111353D01*
X149501944Y-81092872D01*
X149501939Y-81092872D01*
X149495487Y-81091500D01*
X149304513Y-81091500D01*
X149298061Y-81092872D01*
X149298056Y-81092872D01*
X149211112Y-81111353D01*
X149117712Y-81131206D01*
X149111682Y-81133891D01*
X149111681Y-81133891D01*
X148949278Y-81206197D01*
X148949276Y-81206198D01*
X148943248Y-81208882D01*
X148937907Y-81212762D01*
X148937906Y-81212763D01*
X148858478Y-81270471D01*
X148791610Y-81294330D01*
X148722459Y-81278249D01*
X148683592Y-81244101D01*
X148667344Y-81222422D01*
X148667342Y-81222420D01*
X148661961Y-81215240D01*
X148545405Y-81127886D01*
X148409016Y-81076756D01*
X148346834Y-81070001D01*
X146955166Y-81070001D01*
X146892984Y-81076756D01*
X146756595Y-81127886D01*
X146640039Y-81215240D01*
X146552685Y-81331796D01*
X146501555Y-81468185D01*
X146494800Y-81530367D01*
X146494800Y-82515635D01*
X146501555Y-82577817D01*
X146552685Y-82714206D01*
X146640039Y-82830762D01*
X146756595Y-82918116D01*
X146765003Y-82921268D01*
X146815018Y-82940018D01*
X146871782Y-82982660D01*
X146896482Y-83049221D01*
X146881274Y-83118570D01*
X146830988Y-83168688D01*
X146815018Y-83175982D01*
X146756595Y-83197884D01*
X146640039Y-83285238D01*
X146552685Y-83401794D01*
X146501555Y-83538183D01*
X146494800Y-83600365D01*
X146494800Y-84585633D01*
X146501555Y-84647815D01*
X146504327Y-84655211D01*
X146504329Y-84655217D01*
X146529478Y-84722301D01*
X146534661Y-84793108D01*
X146500740Y-84855477D01*
X146438484Y-84889606D01*
X146371829Y-84886123D01*
X146336389Y-84874368D01*
X146336387Y-84874368D01*
X146329861Y-84872203D01*
X146323025Y-84871503D01*
X146323022Y-84871502D01*
X146279969Y-84867091D01*
X146225400Y-84861500D01*
X145600136Y-84861500D01*
X145532015Y-84841498D01*
X145485522Y-84787842D01*
X145475418Y-84717568D01*
X145482152Y-84691276D01*
X145498445Y-84647815D01*
X145505200Y-84585633D01*
X145505200Y-83600365D01*
X145498445Y-83538183D01*
X145447315Y-83401794D01*
X145359961Y-83285238D01*
X145243405Y-83197884D01*
X145184982Y-83175982D01*
X145128218Y-83133340D01*
X145103518Y-83066779D01*
X145118726Y-82997430D01*
X145169012Y-82947312D01*
X145184982Y-82940018D01*
X145234997Y-82921268D01*
X145243405Y-82918116D01*
X145359961Y-82830762D01*
X145447315Y-82714206D01*
X145498445Y-82577817D01*
X145505200Y-82515635D01*
X145505200Y-81530367D01*
X145498445Y-81468185D01*
X145447315Y-81331796D01*
X145359961Y-81215240D01*
X145243405Y-81127886D01*
X145107016Y-81076756D01*
X145044834Y-81070001D01*
X143653166Y-81070001D01*
X143590984Y-81076756D01*
X143454595Y-81127886D01*
X143338039Y-81215240D01*
X143250685Y-81331796D01*
X143199555Y-81468185D01*
X143192800Y-81530367D01*
X143192800Y-82033001D01*
X143172798Y-82101122D01*
X143119142Y-82147615D01*
X143066800Y-82159001D01*
X142036730Y-82159001D01*
X141968609Y-82138999D01*
X141922116Y-82085343D01*
X141911420Y-82019832D01*
X141912814Y-82006567D01*
X141912814Y-82006565D01*
X141913504Y-82000000D01*
X141904052Y-81910072D01*
X141894232Y-81816635D01*
X141894232Y-81816633D01*
X141893542Y-81810072D01*
X141834527Y-81628444D01*
X141739040Y-81463056D01*
X141629864Y-81341803D01*
X141615675Y-81326045D01*
X141615671Y-81326041D01*
X141611253Y-81321134D01*
X141475387Y-81222421D01*
X141462094Y-81212763D01*
X141462093Y-81212762D01*
X141456752Y-81208882D01*
X141450724Y-81206198D01*
X141450722Y-81206197D01*
X141288319Y-81133891D01*
X141288318Y-81133891D01*
X141282288Y-81131206D01*
X141188888Y-81111353D01*
X141101944Y-81092872D01*
X141101939Y-81092872D01*
X141095487Y-81091500D01*
X140904513Y-81091500D01*
X140898061Y-81092872D01*
X140898056Y-81092872D01*
X140811112Y-81111353D01*
X140717712Y-81131206D01*
X140711682Y-81133891D01*
X140711681Y-81133891D01*
X140549278Y-81206197D01*
X140549276Y-81206198D01*
X140543248Y-81208882D01*
X140519725Y-81225973D01*
X140502052Y-81238813D01*
X140435184Y-81262672D01*
X140366033Y-81246593D01*
X140338895Y-81225973D01*
X140335342Y-81222420D01*
X140329961Y-81215240D01*
X140213405Y-81127886D01*
X140077016Y-81076756D01*
X140014834Y-81070001D01*
X138623166Y-81070001D01*
X138560984Y-81076756D01*
X138424595Y-81127886D01*
X138308039Y-81215240D01*
X138220685Y-81331796D01*
X138169555Y-81468185D01*
X138162800Y-81530367D01*
X138162800Y-82033001D01*
X138142798Y-82101122D01*
X138089142Y-82147615D01*
X138036800Y-82159001D01*
X137396265Y-82159001D01*
X137385082Y-82158474D01*
X137377589Y-82156799D01*
X137369663Y-82157048D01*
X137369662Y-82157048D01*
X137309499Y-82158939D01*
X137305541Y-82159001D01*
X137277642Y-82159001D01*
X137273652Y-82159505D01*
X137261818Y-82160437D01*
X137217609Y-82161827D01*
X137209995Y-82164039D01*
X137209990Y-82164040D01*
X137198157Y-82167478D01*
X137178794Y-82171489D01*
X137158701Y-82174027D01*
X137151334Y-82176944D01*
X137151329Y-82176945D01*
X137117590Y-82190303D01*
X137106363Y-82194147D01*
X137063905Y-82206483D01*
X137057079Y-82210520D01*
X137046470Y-82216794D01*
X137028722Y-82225489D01*
X137009881Y-82232949D01*
X137003462Y-82237612D01*
X137003463Y-82237612D01*
X136982368Y-82252938D01*
X136908308Y-82277001D01*
X134879416Y-82277001D01*
X134864177Y-82281476D01*
X134862972Y-82282866D01*
X134861301Y-82290549D01*
X134861301Y-82512170D01*
X134861671Y-82518991D01*
X134867195Y-82569853D01*
X134870821Y-82585105D01*
X134915976Y-82705555D01*
X134924514Y-82721150D01*
X135001015Y-82823225D01*
X135013576Y-82835786D01*
X135115651Y-82912287D01*
X135131248Y-82920826D01*
X135181730Y-82939751D01*
X135238495Y-82982392D01*
X135263195Y-83048954D01*
X135247988Y-83118303D01*
X135197702Y-83168421D01*
X135181730Y-83175715D01*
X135131005Y-83194731D01*
X135131004Y-83194732D01*
X135122595Y-83197884D01*
X135006039Y-83285238D01*
X134918685Y-83401794D01*
X134867555Y-83538183D01*
X134860800Y-83600365D01*
X134860800Y-84585633D01*
X134867555Y-84647815D01*
X134918685Y-84784204D01*
X135006039Y-84900760D01*
X135122595Y-84988114D01*
X135258984Y-85039244D01*
X135314860Y-85045314D01*
X135315496Y-85045383D01*
X135321166Y-85045999D01*
X135994084Y-85045999D01*
X136062205Y-85066001D01*
X136108698Y-85119657D01*
X136118802Y-85189931D01*
X136101344Y-85238115D01*
X136064885Y-85297262D01*
X136009203Y-85465139D01*
X136008503Y-85471975D01*
X136008502Y-85471978D01*
X136004091Y-85515031D01*
X135998500Y-85569600D01*
X135998500Y-86345400D01*
X135998837Y-86348646D01*
X135998837Y-86348650D01*
X136008508Y-86441852D01*
X136009474Y-86451166D01*
X136011655Y-86457702D01*
X136011655Y-86457704D01*
X136023048Y-86491852D01*
X136065450Y-86618946D01*
X136158522Y-86769348D01*
X136283697Y-86894305D01*
X136288235Y-86897102D01*
X136328824Y-86954353D01*
X136332054Y-87025276D01*
X136296428Y-87086687D01*
X136287932Y-87094062D01*
X136277793Y-87102098D01*
X136163261Y-87216829D01*
X136154249Y-87228240D01*
X136069184Y-87366243D01*
X136063037Y-87379424D01*
X136011862Y-87533710D01*
X136008995Y-87547086D01*
X135999328Y-87641438D01*
X135999000Y-87647855D01*
X135999000Y-87760385D01*
X136003475Y-87775624D01*
X136004865Y-87776829D01*
X136012548Y-87778500D01*
X137360000Y-87778500D01*
X137428121Y-87798502D01*
X137474614Y-87852158D01*
X137486000Y-87904500D01*
X137486000Y-89109884D01*
X137490475Y-89125123D01*
X137491865Y-89126328D01*
X137499548Y-89127999D01*
X137671906Y-89127999D01*
X137740027Y-89148001D01*
X137786520Y-89201657D01*
X137796624Y-89271931D01*
X137767130Y-89336511D01*
X137761001Y-89343094D01*
X137674500Y-89429595D01*
X137612188Y-89463621D01*
X137585405Y-89466500D01*
X135378763Y-89466500D01*
X135367579Y-89465973D01*
X135360091Y-89464299D01*
X135352168Y-89464548D01*
X135292033Y-89466438D01*
X135288075Y-89466500D01*
X135260144Y-89466500D01*
X135256229Y-89466995D01*
X135256225Y-89466995D01*
X135256167Y-89467003D01*
X135256138Y-89467006D01*
X135244296Y-89467939D01*
X135200110Y-89469327D01*
X135182744Y-89474372D01*
X135180658Y-89474978D01*
X135161306Y-89478986D01*
X135149068Y-89480532D01*
X135149066Y-89480533D01*
X135141203Y-89481526D01*
X135100086Y-89497806D01*
X135088885Y-89501641D01*
X135046406Y-89513982D01*
X135039587Y-89518015D01*
X135039582Y-89518017D01*
X135028971Y-89524293D01*
X135011221Y-89532990D01*
X134992383Y-89540448D01*
X134957944Y-89565470D01*
X134956625Y-89566428D01*
X134946701Y-89572947D01*
X134915460Y-89591422D01*
X134915455Y-89591426D01*
X134908637Y-89595458D01*
X134894313Y-89609782D01*
X134879281Y-89622621D01*
X134862893Y-89634528D01*
X134834712Y-89668593D01*
X134826722Y-89677373D01*
X133833874Y-90670221D01*
X133771562Y-90704247D01*
X133700747Y-90699182D01*
X133651144Y-90665438D01*
X133611253Y-90621134D01*
X133465467Y-90515214D01*
X133462094Y-90512763D01*
X133462093Y-90512762D01*
X133456752Y-90508882D01*
X133450724Y-90506198D01*
X133450722Y-90506197D01*
X133288319Y-90433891D01*
X133288318Y-90433891D01*
X133282288Y-90431206D01*
X133188887Y-90411353D01*
X133101944Y-90392872D01*
X133101939Y-90392872D01*
X133095487Y-90391500D01*
X132904513Y-90391500D01*
X132898061Y-90392872D01*
X132898056Y-90392872D01*
X132811113Y-90411353D01*
X132717712Y-90431206D01*
X132711682Y-90433891D01*
X132711681Y-90433891D01*
X132549278Y-90506197D01*
X132549276Y-90506198D01*
X132543248Y-90508882D01*
X132537907Y-90512762D01*
X132537906Y-90512763D01*
X132534533Y-90515214D01*
X132388747Y-90621134D01*
X132384329Y-90626041D01*
X132384325Y-90626045D01*
X132285590Y-90735702D01*
X132260960Y-90763056D01*
X132231694Y-90813746D01*
X132175274Y-90911469D01*
X132165473Y-90928444D01*
X132106458Y-91110072D01*
X132094033Y-91228295D01*
X132089093Y-91275293D01*
X132062080Y-91340950D01*
X132052878Y-91351218D01*
X128677075Y-94727020D01*
X128614763Y-94761046D01*
X128587980Y-94763925D01*
X127863071Y-94763925D01*
X127794950Y-94743923D01*
X127748457Y-94690267D01*
X127738353Y-94619993D01*
X127767847Y-94555413D01*
X127773976Y-94548830D01*
X131324247Y-90998559D01*
X131332537Y-90991015D01*
X131339018Y-90986902D01*
X131385659Y-90937234D01*
X131388413Y-90934393D01*
X131408135Y-90914671D01*
X131410619Y-90911469D01*
X131418317Y-90902457D01*
X131443161Y-90876000D01*
X131448586Y-90870223D01*
X131458347Y-90852468D01*
X131469198Y-90835949D01*
X131481614Y-90819943D01*
X131487004Y-90807488D01*
X131499174Y-90779365D01*
X131504391Y-90768715D01*
X131525695Y-90729962D01*
X131530733Y-90710339D01*
X131537137Y-90691636D01*
X131542033Y-90680322D01*
X131542033Y-90680321D01*
X131545181Y-90673047D01*
X131546420Y-90665224D01*
X131546423Y-90665214D01*
X131552099Y-90629378D01*
X131554505Y-90617758D01*
X131563528Y-90582613D01*
X131563528Y-90582612D01*
X131565500Y-90574932D01*
X131565500Y-90554678D01*
X131567051Y-90534967D01*
X131568980Y-90522788D01*
X131570220Y-90514959D01*
X131566059Y-90470940D01*
X131565500Y-90459083D01*
X131565500Y-89174197D01*
X131585502Y-89106076D01*
X131639158Y-89059583D01*
X131651623Y-89054674D01*
X131699002Y-89038867D01*
X131699004Y-89038866D01*
X131705946Y-89036550D01*
X131856348Y-88943478D01*
X131981305Y-88818303D01*
X132014481Y-88764482D01*
X132070275Y-88673968D01*
X132070276Y-88673966D01*
X132074115Y-88667738D01*
X132129797Y-88499861D01*
X132138277Y-88417095D01*
X135999001Y-88417095D01*
X135999338Y-88423614D01*
X136009257Y-88519206D01*
X136012149Y-88532600D01*
X136063588Y-88686784D01*
X136069761Y-88699962D01*
X136155063Y-88837807D01*
X136164099Y-88849208D01*
X136278829Y-88963739D01*
X136290240Y-88972751D01*
X136428243Y-89057816D01*
X136441424Y-89063963D01*
X136595710Y-89115138D01*
X136609086Y-89118005D01*
X136703438Y-89127672D01*
X136709854Y-89128000D01*
X136959885Y-89128000D01*
X136975124Y-89123525D01*
X136976329Y-89122135D01*
X136978000Y-89114452D01*
X136978000Y-88304615D01*
X136973525Y-88289376D01*
X136972135Y-88288171D01*
X136964452Y-88286500D01*
X136017116Y-88286500D01*
X136001877Y-88290975D01*
X136000672Y-88292365D01*
X135999001Y-88300048D01*
X135999001Y-88417095D01*
X132138277Y-88417095D01*
X132140500Y-88395400D01*
X132140500Y-87594600D01*
X132140163Y-87591350D01*
X132130238Y-87495692D01*
X132130237Y-87495688D01*
X132129526Y-87488834D01*
X132121201Y-87463879D01*
X132075868Y-87328002D01*
X132073550Y-87321054D01*
X131980478Y-87170652D01*
X131893891Y-87084216D01*
X131859812Y-87021934D01*
X131864815Y-86951114D01*
X131893736Y-86906025D01*
X131976134Y-86823483D01*
X131981305Y-86818303D01*
X131987348Y-86808500D01*
X132070275Y-86673968D01*
X132070276Y-86673966D01*
X132074115Y-86667738D01*
X132129797Y-86499861D01*
X132131121Y-86486944D01*
X132140172Y-86398598D01*
X132140500Y-86395400D01*
X132140500Y-85594600D01*
X132137906Y-85569600D01*
X132130238Y-85495692D01*
X132130237Y-85495688D01*
X132129526Y-85488834D01*
X132123903Y-85471978D01*
X132075868Y-85328002D01*
X132073550Y-85321054D01*
X131980478Y-85170652D01*
X131915052Y-85105340D01*
X131880973Y-85043058D01*
X131885976Y-84972237D01*
X131928505Y-84915342D01*
X131947961Y-84900760D01*
X132035315Y-84784204D01*
X132086445Y-84647815D01*
X132093200Y-84585633D01*
X132093200Y-83600365D01*
X132086445Y-83538183D01*
X132035315Y-83401794D01*
X131947961Y-83285238D01*
X131831405Y-83197884D01*
X131772982Y-83175982D01*
X131716218Y-83133340D01*
X131691518Y-83066779D01*
X131706726Y-82997430D01*
X131757012Y-82947312D01*
X131772982Y-82940018D01*
X131822997Y-82921268D01*
X131831405Y-82918116D01*
X131947961Y-82830762D01*
X131953342Y-82823582D01*
X131959692Y-82817232D01*
X131962301Y-82819841D01*
X132005107Y-82787790D01*
X132075922Y-82782719D01*
X132123211Y-82803906D01*
X132214410Y-82870166D01*
X132243248Y-82891118D01*
X132249276Y-82893802D01*
X132249278Y-82893803D01*
X132369462Y-82947312D01*
X132417712Y-82968794D01*
X132511113Y-82988647D01*
X132598056Y-83007128D01*
X132598061Y-83007128D01*
X132604513Y-83008500D01*
X132795487Y-83008500D01*
X132801939Y-83007128D01*
X132801944Y-83007128D01*
X132888887Y-82988647D01*
X132982288Y-82968794D01*
X133030538Y-82947312D01*
X133150722Y-82893803D01*
X133150724Y-82893802D01*
X133156752Y-82891118D01*
X133311253Y-82778866D01*
X133339671Y-82747305D01*
X133434621Y-82641852D01*
X133434622Y-82641851D01*
X133439040Y-82636944D01*
X133511077Y-82512173D01*
X133531223Y-82477279D01*
X133531224Y-82477278D01*
X133534527Y-82471556D01*
X133593542Y-82289928D01*
X133594431Y-82281476D01*
X133612814Y-82106565D01*
X133613504Y-82100000D01*
X133593542Y-81910072D01*
X133541819Y-81750886D01*
X134861300Y-81750886D01*
X134865775Y-81766125D01*
X134867165Y-81767330D01*
X134874848Y-81769001D01*
X135744885Y-81769001D01*
X135760124Y-81764526D01*
X135761329Y-81763136D01*
X135763000Y-81755453D01*
X135763000Y-81750886D01*
X136271000Y-81750886D01*
X136275475Y-81766125D01*
X136276865Y-81767330D01*
X136284548Y-81769001D01*
X137154584Y-81769001D01*
X137169823Y-81764526D01*
X137171028Y-81763136D01*
X137172699Y-81755453D01*
X137172699Y-81533832D01*
X137172329Y-81527011D01*
X137166805Y-81476149D01*
X137163179Y-81460897D01*
X137118024Y-81340447D01*
X137109486Y-81324852D01*
X137032985Y-81222777D01*
X137020424Y-81210216D01*
X136918349Y-81133715D01*
X136902754Y-81125177D01*
X136782306Y-81080023D01*
X136767051Y-81076396D01*
X136716186Y-81070870D01*
X136709372Y-81070501D01*
X136289115Y-81070501D01*
X136273876Y-81074976D01*
X136272671Y-81076366D01*
X136271000Y-81084049D01*
X136271000Y-81750886D01*
X135763000Y-81750886D01*
X135763000Y-81088617D01*
X135758525Y-81073378D01*
X135757135Y-81072173D01*
X135749452Y-81070502D01*
X135324631Y-81070502D01*
X135317810Y-81070872D01*
X135266948Y-81076396D01*
X135251696Y-81080022D01*
X135131246Y-81125177D01*
X135115651Y-81133715D01*
X135013576Y-81210216D01*
X135001015Y-81222777D01*
X134924514Y-81324852D01*
X134915976Y-81340447D01*
X134870822Y-81460895D01*
X134867195Y-81476150D01*
X134861669Y-81527015D01*
X134861300Y-81533829D01*
X134861300Y-81750886D01*
X133541819Y-81750886D01*
X133534527Y-81728444D01*
X133439040Y-81563056D01*
X133412684Y-81533784D01*
X133315675Y-81426045D01*
X133315674Y-81426044D01*
X133311253Y-81421134D01*
X133187353Y-81331115D01*
X133162094Y-81312763D01*
X133162093Y-81312762D01*
X133156752Y-81308882D01*
X133150724Y-81306198D01*
X133150722Y-81306197D01*
X132988319Y-81233891D01*
X132988318Y-81233891D01*
X132982288Y-81231206D01*
X132888888Y-81211353D01*
X132801944Y-81192872D01*
X132801939Y-81192872D01*
X132795487Y-81191500D01*
X132604513Y-81191500D01*
X132598061Y-81192872D01*
X132598056Y-81192872D01*
X132511112Y-81211353D01*
X132417712Y-81231206D01*
X132411682Y-81233891D01*
X132411681Y-81233891D01*
X132249278Y-81306197D01*
X132249276Y-81306198D01*
X132243248Y-81308882D01*
X132234234Y-81315431D01*
X132197936Y-81341803D01*
X132131069Y-81365661D01*
X132061917Y-81349580D01*
X132023050Y-81315431D01*
X131947961Y-81215240D01*
X131831405Y-81127886D01*
X131695016Y-81076756D01*
X131632834Y-81070001D01*
X130241166Y-81070001D01*
X130178984Y-81076756D01*
X130042595Y-81127886D01*
X129926039Y-81215240D01*
X129838685Y-81331796D01*
X129787555Y-81468185D01*
X129780800Y-81530367D01*
X129780800Y-82515635D01*
X129787555Y-82577817D01*
X129838685Y-82714206D01*
X129926039Y-82830762D01*
X130042595Y-82918116D01*
X130051003Y-82921268D01*
X130101018Y-82940018D01*
X130157782Y-82982660D01*
X130182482Y-83049221D01*
X130167274Y-83118570D01*
X130116988Y-83168688D01*
X130101018Y-83175982D01*
X130042595Y-83197884D01*
X129926039Y-83285238D01*
X129838685Y-83401794D01*
X129787555Y-83538183D01*
X129780800Y-83600365D01*
X129780800Y-84585633D01*
X129787555Y-84647815D01*
X129790327Y-84655211D01*
X129790329Y-84655217D01*
X129827690Y-84754876D01*
X129832873Y-84825683D01*
X129798952Y-84888052D01*
X129736697Y-84922181D01*
X129670041Y-84918698D01*
X129536389Y-84874368D01*
X129536387Y-84874368D01*
X129529861Y-84872203D01*
X129523025Y-84871503D01*
X129523022Y-84871502D01*
X129479969Y-84867091D01*
X129425400Y-84861500D01*
X128886136Y-84861500D01*
X128818015Y-84841498D01*
X128771522Y-84787842D01*
X128761418Y-84717568D01*
X128768152Y-84691276D01*
X128784445Y-84647815D01*
X128791200Y-84585633D01*
X128791200Y-83600365D01*
X128784445Y-83538183D01*
X128733315Y-83401794D01*
X128645961Y-83285238D01*
X128529405Y-83197884D01*
X128520996Y-83194732D01*
X128520995Y-83194731D01*
X128470270Y-83175715D01*
X128413505Y-83133074D01*
X128388805Y-83066512D01*
X128404012Y-82997163D01*
X128454298Y-82947045D01*
X128470270Y-82939751D01*
X128520752Y-82920826D01*
X128536349Y-82912287D01*
X128638424Y-82835786D01*
X128650985Y-82823225D01*
X128727486Y-82721150D01*
X128736024Y-82705555D01*
X128781178Y-82585107D01*
X128784805Y-82569852D01*
X128790331Y-82518987D01*
X128790700Y-82512173D01*
X128790700Y-82295116D01*
X128786225Y-82279877D01*
X128784835Y-82278672D01*
X128777152Y-82277001D01*
X126497416Y-82277001D01*
X126482177Y-82281476D01*
X126467129Y-82298842D01*
X126450336Y-82329595D01*
X126388024Y-82363621D01*
X126361241Y-82366500D01*
X125109594Y-82366500D01*
X125041473Y-82346498D01*
X124994980Y-82292842D01*
X124984876Y-82222568D01*
X124989762Y-82201562D01*
X124991502Y-82196208D01*
X124991503Y-82196203D01*
X124993542Y-82189928D01*
X124996496Y-82161827D01*
X125012814Y-82006565D01*
X125013504Y-82000000D01*
X125004052Y-81910072D01*
X124994232Y-81816635D01*
X124994232Y-81816633D01*
X124993542Y-81810072D01*
X124974311Y-81750886D01*
X126479300Y-81750886D01*
X126483775Y-81766125D01*
X126485165Y-81767330D01*
X126492848Y-81769001D01*
X127362885Y-81769001D01*
X127378124Y-81764526D01*
X127379329Y-81763136D01*
X127381000Y-81755453D01*
X127381000Y-81750886D01*
X127889000Y-81750886D01*
X127893475Y-81766125D01*
X127894865Y-81767330D01*
X127902548Y-81769001D01*
X128772584Y-81769001D01*
X128787823Y-81764526D01*
X128789028Y-81763136D01*
X128790699Y-81755453D01*
X128790699Y-81533832D01*
X128790329Y-81527011D01*
X128784805Y-81476149D01*
X128781179Y-81460897D01*
X128736024Y-81340447D01*
X128727486Y-81324852D01*
X128650985Y-81222777D01*
X128638424Y-81210216D01*
X128536349Y-81133715D01*
X128520754Y-81125177D01*
X128400306Y-81080023D01*
X128385051Y-81076396D01*
X128334186Y-81070870D01*
X128327372Y-81070501D01*
X127907115Y-81070501D01*
X127891876Y-81074976D01*
X127890671Y-81076366D01*
X127889000Y-81084049D01*
X127889000Y-81750886D01*
X127381000Y-81750886D01*
X127381000Y-81088617D01*
X127376525Y-81073378D01*
X127375135Y-81072173D01*
X127367452Y-81070502D01*
X126942631Y-81070502D01*
X126935810Y-81070872D01*
X126884948Y-81076396D01*
X126869696Y-81080022D01*
X126749246Y-81125177D01*
X126733651Y-81133715D01*
X126631576Y-81210216D01*
X126619015Y-81222777D01*
X126542514Y-81324852D01*
X126533976Y-81340447D01*
X126488822Y-81460895D01*
X126485195Y-81476150D01*
X126479669Y-81527015D01*
X126479300Y-81533829D01*
X126479300Y-81750886D01*
X124974311Y-81750886D01*
X124934527Y-81628444D01*
X124839040Y-81463056D01*
X124729864Y-81341803D01*
X124715675Y-81326045D01*
X124715671Y-81326041D01*
X124711253Y-81321134D01*
X124575387Y-81222421D01*
X124562094Y-81212763D01*
X124562093Y-81212762D01*
X124556752Y-81208882D01*
X124550724Y-81206198D01*
X124550722Y-81206197D01*
X124388319Y-81133891D01*
X124388318Y-81133891D01*
X124382288Y-81131206D01*
X124288888Y-81111353D01*
X124201944Y-81092872D01*
X124201939Y-81092872D01*
X124195487Y-81091500D01*
X124004513Y-81091500D01*
X123998061Y-81092872D01*
X123998056Y-81092872D01*
X123911112Y-81111353D01*
X123817712Y-81131206D01*
X123811682Y-81133891D01*
X123811681Y-81133891D01*
X123649278Y-81206197D01*
X123649276Y-81206198D01*
X123643248Y-81208882D01*
X123637907Y-81212762D01*
X123637906Y-81212763D01*
X123624613Y-81222421D01*
X123493731Y-81317513D01*
X123426866Y-81341370D01*
X123357714Y-81325290D01*
X123318846Y-81291141D01*
X123267343Y-81222421D01*
X123267342Y-81222420D01*
X123261961Y-81215240D01*
X123145405Y-81127886D01*
X123009016Y-81076756D01*
X122946834Y-81070001D01*
X121555166Y-81070001D01*
X121492984Y-81076756D01*
X121356595Y-81127886D01*
X121240039Y-81215240D01*
X121152685Y-81331796D01*
X121101555Y-81468185D01*
X121094800Y-81530367D01*
X121094800Y-82240500D01*
X121074798Y-82308621D01*
X121021142Y-82355114D01*
X120968800Y-82366500D01*
X120231200Y-82366500D01*
X120163079Y-82346498D01*
X120116586Y-82292842D01*
X120105200Y-82240500D01*
X120105200Y-81530367D01*
X120098445Y-81468185D01*
X120047315Y-81331796D01*
X119959961Y-81215240D01*
X119843405Y-81127886D01*
X119707016Y-81076756D01*
X119644834Y-81070001D01*
X118253166Y-81070001D01*
X118190984Y-81076756D01*
X118054595Y-81127886D01*
X117938039Y-81215240D01*
X117850685Y-81331796D01*
X117799555Y-81468185D01*
X117792800Y-81530367D01*
X117792800Y-82515635D01*
X117799555Y-82577817D01*
X117850685Y-82714206D01*
X117938039Y-82830762D01*
X118054595Y-82918116D01*
X118063003Y-82921268D01*
X118113018Y-82940018D01*
X118169782Y-82982660D01*
X118194482Y-83049221D01*
X118179274Y-83118570D01*
X118128988Y-83168688D01*
X118113018Y-83175982D01*
X118054595Y-83197884D01*
X117938039Y-83285238D01*
X117850685Y-83401794D01*
X117799555Y-83538183D01*
X117792800Y-83600365D01*
X117792800Y-84585633D01*
X117799555Y-84647815D01*
X117850685Y-84784204D01*
X117851986Y-84785939D01*
X117866500Y-84842675D01*
X117866500Y-85247476D01*
X117846498Y-85315597D01*
X117834142Y-85331779D01*
X117760960Y-85413056D01*
X117665473Y-85578444D01*
X117606458Y-85760072D01*
X117586496Y-85950000D01*
X117606458Y-86139928D01*
X117665473Y-86321556D01*
X117760960Y-86486944D01*
X117765378Y-86491851D01*
X117765379Y-86491852D01*
X117873559Y-86611998D01*
X117888747Y-86628866D01*
X118043248Y-86741118D01*
X118049276Y-86743802D01*
X118049278Y-86743803D01*
X118194591Y-86808500D01*
X118217712Y-86818794D01*
X118311113Y-86838647D01*
X118398056Y-86857128D01*
X118398061Y-86857128D01*
X118404513Y-86858500D01*
X118595487Y-86858500D01*
X118601939Y-86857128D01*
X118601944Y-86857128D01*
X118688887Y-86838647D01*
X118782288Y-86818794D01*
X118805409Y-86808500D01*
X118950722Y-86743803D01*
X118950724Y-86743802D01*
X118956752Y-86741118D01*
X119021008Y-86694433D01*
X119087875Y-86670575D01*
X119157027Y-86686655D01*
X119202213Y-86730065D01*
X119226522Y-86769348D01*
X119351697Y-86894305D01*
X119356235Y-86897102D01*
X119396824Y-86954353D01*
X119400054Y-87025276D01*
X119364428Y-87086687D01*
X119355932Y-87094062D01*
X119345793Y-87102098D01*
X119231261Y-87216829D01*
X119222249Y-87228240D01*
X119137184Y-87366243D01*
X119131037Y-87379424D01*
X119079862Y-87533710D01*
X119076995Y-87547086D01*
X119067328Y-87641438D01*
X119067000Y-87647855D01*
X119067000Y-87760385D01*
X119071475Y-87775624D01*
X119072865Y-87776829D01*
X119080548Y-87778500D01*
X120428000Y-87778500D01*
X120496121Y-87798502D01*
X120542614Y-87852158D01*
X120554000Y-87904500D01*
X120554000Y-89109884D01*
X120558475Y-89125123D01*
X120559865Y-89126328D01*
X120567548Y-89127999D01*
X120822095Y-89127999D01*
X120828614Y-89127662D01*
X120924206Y-89117743D01*
X120937600Y-89114851D01*
X121091784Y-89063412D01*
X121104962Y-89057239D01*
X121242807Y-88971937D01*
X121259945Y-88958354D01*
X121260745Y-88959363D01*
X121316403Y-88928908D01*
X121387223Y-88933910D01*
X121409410Y-88944745D01*
X121440225Y-88963739D01*
X121552090Y-89032694D01*
X121559262Y-89037115D01*
X121612168Y-89054663D01*
X121670527Y-89095094D01*
X121697764Y-89160658D01*
X121698500Y-89174256D01*
X121698500Y-92523711D01*
X121678498Y-92591832D01*
X121624842Y-92638325D01*
X121554568Y-92648429D01*
X121489988Y-92618935D01*
X121483405Y-92612806D01*
X119073824Y-90203224D01*
X117287695Y-88417095D01*
X119067001Y-88417095D01*
X119067338Y-88423614D01*
X119077257Y-88519206D01*
X119080149Y-88532600D01*
X119131588Y-88686784D01*
X119137761Y-88699962D01*
X119223063Y-88837807D01*
X119232099Y-88849208D01*
X119346829Y-88963739D01*
X119358240Y-88972751D01*
X119496243Y-89057816D01*
X119509424Y-89063963D01*
X119663710Y-89115138D01*
X119677086Y-89118005D01*
X119771438Y-89127672D01*
X119777854Y-89128000D01*
X120027885Y-89128000D01*
X120043124Y-89123525D01*
X120044329Y-89122135D01*
X120046000Y-89114452D01*
X120046000Y-88304615D01*
X120041525Y-88289376D01*
X120040135Y-88288171D01*
X120032452Y-88286500D01*
X119085116Y-88286500D01*
X119069877Y-88290975D01*
X119068672Y-88292365D01*
X119067001Y-88300048D01*
X119067001Y-88417095D01*
X117287695Y-88417095D01*
X116473347Y-87602747D01*
X116465807Y-87594461D01*
X116461695Y-87587982D01*
X116412043Y-87541356D01*
X116409202Y-87538602D01*
X116389465Y-87518865D01*
X116386268Y-87516385D01*
X116377246Y-87508680D01*
X116350795Y-87483841D01*
X116345016Y-87478414D01*
X116338070Y-87474595D01*
X116338067Y-87474593D01*
X116327261Y-87468652D01*
X116310742Y-87457801D01*
X116310278Y-87457441D01*
X116294736Y-87445386D01*
X116287467Y-87442241D01*
X116287463Y-87442238D01*
X116254158Y-87427826D01*
X116243508Y-87422609D01*
X116204755Y-87401305D01*
X116185132Y-87396267D01*
X116166429Y-87389863D01*
X116155115Y-87384967D01*
X116155114Y-87384967D01*
X116147840Y-87381819D01*
X116140017Y-87380580D01*
X116140007Y-87380577D01*
X116104171Y-87374901D01*
X116092551Y-87372495D01*
X116057406Y-87363472D01*
X116057405Y-87363472D01*
X116049725Y-87361500D01*
X116029471Y-87361500D01*
X116009760Y-87359949D01*
X115997581Y-87358020D01*
X115989752Y-87356780D01*
X115981860Y-87357526D01*
X115945734Y-87360941D01*
X115933876Y-87361500D01*
X115146781Y-87361500D01*
X115078660Y-87341498D01*
X115039637Y-87301803D01*
X114962332Y-87176880D01*
X114958478Y-87170652D01*
X114871891Y-87084216D01*
X114837812Y-87021934D01*
X114842815Y-86951114D01*
X114871736Y-86906025D01*
X114954134Y-86823483D01*
X114959305Y-86818303D01*
X114965348Y-86808500D01*
X115048275Y-86673968D01*
X115048276Y-86673966D01*
X115052115Y-86667738D01*
X115107797Y-86499861D01*
X115109121Y-86486944D01*
X115118172Y-86398598D01*
X115118500Y-86395400D01*
X115118500Y-85594600D01*
X115115906Y-85569600D01*
X115108238Y-85495692D01*
X115108237Y-85495688D01*
X115107526Y-85488834D01*
X115101903Y-85471978D01*
X115053868Y-85328002D01*
X115051550Y-85321054D01*
X114958478Y-85170652D01*
X114923850Y-85136084D01*
X114889771Y-85073804D01*
X114894774Y-85002984D01*
X114937303Y-84946086D01*
X114990600Y-84906142D01*
X114990602Y-84906140D01*
X114997781Y-84900760D01*
X115085135Y-84784204D01*
X115136265Y-84647815D01*
X115143020Y-84585633D01*
X115143020Y-83600365D01*
X115136265Y-83538183D01*
X115085135Y-83401794D01*
X114997781Y-83285238D01*
X114881225Y-83197884D01*
X114822802Y-83175982D01*
X114766038Y-83133340D01*
X114741338Y-83066779D01*
X114756546Y-82997430D01*
X114806832Y-82947312D01*
X114822802Y-82940018D01*
X114872817Y-82921268D01*
X114881225Y-82918116D01*
X114997781Y-82830762D01*
X114998949Y-82832320D01*
X115051293Y-82803737D01*
X115122108Y-82808802D01*
X115152137Y-82824922D01*
X115214410Y-82870166D01*
X115243248Y-82891118D01*
X115249276Y-82893802D01*
X115249278Y-82893803D01*
X115369462Y-82947312D01*
X115417712Y-82968794D01*
X115511113Y-82988647D01*
X115598056Y-83007128D01*
X115598061Y-83007128D01*
X115604513Y-83008500D01*
X115795487Y-83008500D01*
X115801939Y-83007128D01*
X115801944Y-83007128D01*
X115888887Y-82988647D01*
X115982288Y-82968794D01*
X116030538Y-82947312D01*
X116150722Y-82893803D01*
X116150724Y-82893802D01*
X116156752Y-82891118D01*
X116311253Y-82778866D01*
X116339671Y-82747305D01*
X116434621Y-82641852D01*
X116434622Y-82641851D01*
X116439040Y-82636944D01*
X116511077Y-82512173D01*
X116531223Y-82477279D01*
X116531224Y-82477278D01*
X116534527Y-82471556D01*
X116593542Y-82289928D01*
X116594431Y-82281476D01*
X116612814Y-82106565D01*
X116613504Y-82100000D01*
X116593542Y-81910072D01*
X116534527Y-81728444D01*
X116439040Y-81563056D01*
X116412684Y-81533784D01*
X116315675Y-81426045D01*
X116315674Y-81426044D01*
X116311253Y-81421134D01*
X116187353Y-81331115D01*
X116162094Y-81312763D01*
X116162093Y-81312762D01*
X116156752Y-81308882D01*
X116150724Y-81306198D01*
X116150722Y-81306197D01*
X115988319Y-81233891D01*
X115988318Y-81233891D01*
X115982288Y-81231206D01*
X115888888Y-81211353D01*
X115801944Y-81192872D01*
X115801939Y-81192872D01*
X115795487Y-81191500D01*
X115604513Y-81191500D01*
X115598061Y-81192872D01*
X115598056Y-81192872D01*
X115511112Y-81211353D01*
X115417712Y-81231206D01*
X115411682Y-81233891D01*
X115411681Y-81233891D01*
X115249278Y-81306197D01*
X115249276Y-81306198D01*
X115243248Y-81308882D01*
X115237907Y-81312762D01*
X115237906Y-81312763D01*
X115230193Y-81318367D01*
X115163325Y-81342226D01*
X115094174Y-81326145D01*
X115055308Y-81291997D01*
X114997781Y-81215240D01*
X114881225Y-81127886D01*
X114744836Y-81076756D01*
X114682654Y-81070001D01*
X113290986Y-81070001D01*
X113228804Y-81076756D01*
X113092415Y-81127886D01*
X112975859Y-81215240D01*
X112888505Y-81331796D01*
X112837375Y-81468185D01*
X112830620Y-81530367D01*
X112830620Y-82515635D01*
X112837375Y-82577817D01*
X112888505Y-82714206D01*
X112975859Y-82830762D01*
X113092415Y-82918116D01*
X113100823Y-82921268D01*
X113150838Y-82940018D01*
X113207602Y-82982660D01*
X113232302Y-83049221D01*
X113217094Y-83118570D01*
X113166808Y-83168688D01*
X113150838Y-83175982D01*
X113092415Y-83197884D01*
X112975859Y-83285238D01*
X112888505Y-83401794D01*
X112837375Y-83538183D01*
X112830620Y-83600365D01*
X112830620Y-84585633D01*
X112837375Y-84647815D01*
X112840148Y-84655211D01*
X112840149Y-84655214D01*
X112885352Y-84775795D01*
X112885353Y-84775796D01*
X112888505Y-84784204D01*
X112889907Y-84786075D01*
X112904363Y-84852166D01*
X112879628Y-84918715D01*
X112822841Y-84961326D01*
X112752031Y-84966472D01*
X112712558Y-84950581D01*
X112681968Y-84931725D01*
X112681966Y-84931724D01*
X112675738Y-84927885D01*
X112549829Y-84886123D01*
X112514389Y-84874368D01*
X112514387Y-84874368D01*
X112507861Y-84872203D01*
X112501025Y-84871503D01*
X112501022Y-84871502D01*
X112457969Y-84867091D01*
X112403400Y-84861500D01*
X111935956Y-84861500D01*
X111867835Y-84841498D01*
X111821342Y-84787842D01*
X111811238Y-84717568D01*
X111817972Y-84691276D01*
X111834265Y-84647815D01*
X111841020Y-84585633D01*
X111841020Y-83600365D01*
X111834265Y-83538183D01*
X111783135Y-83401794D01*
X111695781Y-83285238D01*
X111579225Y-83197884D01*
X111520802Y-83175982D01*
X111464038Y-83133340D01*
X111439338Y-83066779D01*
X111454546Y-82997430D01*
X111504832Y-82947312D01*
X111520802Y-82940018D01*
X111570817Y-82921268D01*
X111579225Y-82918116D01*
X111695781Y-82830762D01*
X111783135Y-82714206D01*
X111834265Y-82577817D01*
X111841020Y-82515635D01*
X111841020Y-81530367D01*
X111834265Y-81468185D01*
X111783135Y-81331796D01*
X111695781Y-81215240D01*
X111579225Y-81127886D01*
X111442836Y-81076756D01*
X111380654Y-81070001D01*
X109988986Y-81070001D01*
X109926804Y-81076756D01*
X109790415Y-81127886D01*
X109673859Y-81215240D01*
X109586505Y-81331796D01*
X109535375Y-81468185D01*
X109528620Y-81530367D01*
X109528620Y-82231106D01*
X109508618Y-82299227D01*
X109491715Y-82320201D01*
X109158822Y-82653094D01*
X109096510Y-82687120D01*
X109069727Y-82689999D01*
X107868912Y-82689999D01*
X107800791Y-82669997D01*
X107754298Y-82616341D01*
X107744194Y-82546067D01*
X107759793Y-82500999D01*
X107831223Y-82377279D01*
X107831224Y-82377278D01*
X107834527Y-82371556D01*
X107893542Y-82189928D01*
X107896496Y-82161827D01*
X107912814Y-82006565D01*
X107913504Y-82000000D01*
X107904052Y-81910072D01*
X107894232Y-81816635D01*
X107894232Y-81816633D01*
X107893542Y-81810072D01*
X107834527Y-81628444D01*
X107739040Y-81463056D01*
X107629864Y-81341803D01*
X107615675Y-81326045D01*
X107615671Y-81326041D01*
X107611253Y-81321134D01*
X107475387Y-81222421D01*
X107462094Y-81212763D01*
X107462093Y-81212762D01*
X107456752Y-81208882D01*
X107450724Y-81206198D01*
X107450722Y-81206197D01*
X107288319Y-81133891D01*
X107288318Y-81133891D01*
X107282288Y-81131206D01*
X107188888Y-81111353D01*
X107101944Y-81092872D01*
X107101939Y-81092872D01*
X107095487Y-81091500D01*
X106904513Y-81091500D01*
X106898061Y-81092872D01*
X106898056Y-81092872D01*
X106811112Y-81111353D01*
X106717712Y-81131206D01*
X106711682Y-81133891D01*
X106711681Y-81133891D01*
X106549278Y-81206197D01*
X106549276Y-81206198D01*
X106543248Y-81208882D01*
X106524615Y-81222420D01*
X106520586Y-81225347D01*
X106453719Y-81249206D01*
X106384567Y-81233127D01*
X106363198Y-81216890D01*
X106361961Y-81215240D01*
X106245405Y-81127886D01*
X106109016Y-81076756D01*
X106046834Y-81070001D01*
X104655166Y-81070001D01*
X104592984Y-81076756D01*
X104456595Y-81127886D01*
X104340039Y-81215240D01*
X104252685Y-81331796D01*
X104201555Y-81468185D01*
X104194800Y-81530367D01*
X104194800Y-82515635D01*
X104195169Y-82519029D01*
X104198576Y-82550390D01*
X104186048Y-82620273D01*
X104137728Y-82672289D01*
X104073313Y-82689999D01*
X103326182Y-82689999D01*
X103258061Y-82669997D01*
X103211568Y-82616341D01*
X103200919Y-82550390D01*
X103204331Y-82518984D01*
X103204700Y-82512173D01*
X103204700Y-82295116D01*
X103200225Y-82279877D01*
X103198835Y-82278672D01*
X103191152Y-82277001D01*
X100911416Y-82277001D01*
X100896177Y-82281476D01*
X100894972Y-82282866D01*
X100893301Y-82290549D01*
X100893301Y-82512170D01*
X100893671Y-82518991D01*
X100899195Y-82569853D01*
X100902821Y-82585105D01*
X100947976Y-82705555D01*
X100956514Y-82721150D01*
X101033015Y-82823225D01*
X101045576Y-82835786D01*
X101147651Y-82912287D01*
X101163248Y-82920826D01*
X101213730Y-82939751D01*
X101270495Y-82982392D01*
X101295195Y-83048954D01*
X101279988Y-83118303D01*
X101229702Y-83168421D01*
X101213730Y-83175715D01*
X101163005Y-83194731D01*
X101163004Y-83194732D01*
X101154595Y-83197884D01*
X101038039Y-83285238D01*
X100950685Y-83401794D01*
X100899555Y-83538183D01*
X100892800Y-83600365D01*
X100892800Y-84585633D01*
X100899555Y-84647815D01*
X100950685Y-84784204D01*
X101038039Y-84900760D01*
X101154595Y-84988114D01*
X101290984Y-85039244D01*
X101346860Y-85045314D01*
X101347496Y-85045383D01*
X101353166Y-85045999D01*
X101962084Y-85045999D01*
X102030205Y-85066001D01*
X102076698Y-85119657D01*
X102086802Y-85189931D01*
X102069344Y-85238115D01*
X102032885Y-85297262D01*
X101977203Y-85465139D01*
X101976503Y-85471975D01*
X101976502Y-85471978D01*
X101972091Y-85515031D01*
X101966500Y-85569600D01*
X101966500Y-86345400D01*
X101966837Y-86348646D01*
X101966837Y-86348650D01*
X101976508Y-86441852D01*
X101977474Y-86451166D01*
X101979655Y-86457702D01*
X101979655Y-86457704D01*
X101991048Y-86491852D01*
X102033450Y-86618946D01*
X102126522Y-86769348D01*
X102251697Y-86894305D01*
X102256235Y-86897102D01*
X102296824Y-86954353D01*
X102300054Y-87025276D01*
X102264428Y-87086687D01*
X102255932Y-87094062D01*
X102245793Y-87102098D01*
X102131261Y-87216829D01*
X102122249Y-87228240D01*
X102037184Y-87366243D01*
X102031037Y-87379424D01*
X101979862Y-87533710D01*
X101976995Y-87547086D01*
X101967328Y-87641438D01*
X101967000Y-87647855D01*
X101967000Y-87760385D01*
X101971475Y-87775624D01*
X101972865Y-87776829D01*
X101980548Y-87778500D01*
X103328000Y-87778500D01*
X103396121Y-87798502D01*
X103442614Y-87852158D01*
X103454000Y-87904500D01*
X103454000Y-89109884D01*
X103458475Y-89125123D01*
X103459865Y-89126328D01*
X103467548Y-89127999D01*
X103722095Y-89127999D01*
X103728614Y-89127662D01*
X103824206Y-89117743D01*
X103837600Y-89114851D01*
X103991784Y-89063412D01*
X104004962Y-89057239D01*
X104142807Y-88971937D01*
X104159945Y-88958354D01*
X104160745Y-88959363D01*
X104216403Y-88928908D01*
X104287223Y-88933910D01*
X104309410Y-88944745D01*
X104340225Y-88963739D01*
X104452090Y-89032694D01*
X104459262Y-89037115D01*
X104512168Y-89054663D01*
X104620611Y-89090632D01*
X104620613Y-89090632D01*
X104627139Y-89092797D01*
X104633975Y-89093497D01*
X104633978Y-89093498D01*
X104677031Y-89097909D01*
X104731600Y-89103500D01*
X105392406Y-89103500D01*
X105460527Y-89123502D01*
X105481501Y-89140405D01*
X112617500Y-96276405D01*
X112651526Y-96338717D01*
X112646461Y-96409532D01*
X112603914Y-96466368D01*
X112537394Y-96491179D01*
X112528405Y-96491500D01*
X104951487Y-96491500D01*
X104883366Y-96471498D01*
X104836873Y-96417842D01*
X104826769Y-96347568D01*
X104856263Y-96282988D01*
X104887917Y-96256712D01*
X104964560Y-96211926D01*
X104964562Y-96211925D01*
X104967700Y-96210091D01*
X104970609Y-96207907D01*
X105242244Y-96003958D01*
X105242248Y-96003955D01*
X105245151Y-96001775D01*
X105496819Y-95762950D01*
X105719370Y-95496783D01*
X105729221Y-95481787D01*
X105856680Y-95287747D01*
X105909853Y-95206799D01*
X106048269Y-94931590D01*
X106064117Y-94900080D01*
X106064120Y-94900072D01*
X106065744Y-94896844D01*
X106120580Y-94746999D01*
X106183729Y-94574437D01*
X106183730Y-94574433D01*
X106184977Y-94571026D01*
X106185822Y-94567504D01*
X106185825Y-94567496D01*
X106265124Y-94237191D01*
X106265125Y-94237187D01*
X106265971Y-94233662D01*
X106267523Y-94220840D01*
X106307316Y-93892004D01*
X106307316Y-93891997D01*
X106307652Y-93889225D01*
X106307948Y-93879831D01*
X106313312Y-93709118D01*
X106313599Y-93700000D01*
X106311983Y-93671967D01*
X106293836Y-93357246D01*
X106293835Y-93357241D01*
X106293627Y-93353626D01*
X106273046Y-93235702D01*
X106234600Y-93015415D01*
X106234598Y-93015408D01*
X106233976Y-93011842D01*
X106222360Y-92972625D01*
X106179167Y-92826811D01*
X106135437Y-92679180D01*
X106112773Y-92626045D01*
X106000740Y-92363386D01*
X106000738Y-92363383D01*
X105999316Y-92360048D01*
X105997290Y-92356495D01*
X105829208Y-92061816D01*
X105827417Y-92058676D01*
X105821372Y-92050446D01*
X105624161Y-91781978D01*
X105622018Y-91779060D01*
X105530747Y-91680840D01*
X105388309Y-91527559D01*
X105385842Y-91524904D01*
X105122019Y-91299578D01*
X104834047Y-91106069D01*
X104796023Y-91086443D01*
X104568094Y-90968800D01*
X104525741Y-90946940D01*
X104201189Y-90824302D01*
X104197668Y-90823418D01*
X104197663Y-90823416D01*
X104000581Y-90773913D01*
X103864692Y-90739780D01*
X103813155Y-90732995D01*
X103524315Y-90694968D01*
X103524307Y-90694967D01*
X103520711Y-90694494D01*
X103376045Y-90692221D01*
X103177446Y-90689101D01*
X103177442Y-90689101D01*
X103173804Y-90689044D01*
X103170190Y-90689405D01*
X103170184Y-90689405D01*
X102960445Y-90710340D01*
X102828569Y-90723503D01*
X102489583Y-90797414D01*
X102486156Y-90798587D01*
X102486150Y-90798589D01*
X102207461Y-90894006D01*
X102161339Y-90909797D01*
X101848188Y-91059163D01*
X101845115Y-91061091D01*
X101845108Y-91061095D01*
X101826119Y-91073007D01*
X101554279Y-91243532D01*
X101551443Y-91245804D01*
X101551436Y-91245809D01*
X101419864Y-91351218D01*
X101283509Y-91460459D01*
X101039466Y-91707071D01*
X101037225Y-91709929D01*
X100980732Y-91781978D01*
X100825386Y-91980098D01*
X100746470Y-92108878D01*
X100741933Y-92116281D01*
X100689285Y-92163912D01*
X100619244Y-92175519D01*
X100554046Y-92147416D01*
X100514392Y-92088526D01*
X100508500Y-92050446D01*
X100508500Y-88417095D01*
X101967001Y-88417095D01*
X101967338Y-88423614D01*
X101977257Y-88519206D01*
X101980149Y-88532600D01*
X102031588Y-88686784D01*
X102037761Y-88699962D01*
X102123063Y-88837807D01*
X102132099Y-88849208D01*
X102246829Y-88963739D01*
X102258240Y-88972751D01*
X102396243Y-89057816D01*
X102409424Y-89063963D01*
X102563710Y-89115138D01*
X102577086Y-89118005D01*
X102671438Y-89127672D01*
X102677854Y-89128000D01*
X102927885Y-89128000D01*
X102943124Y-89123525D01*
X102944329Y-89122135D01*
X102946000Y-89114452D01*
X102946000Y-88304615D01*
X102941525Y-88289376D01*
X102940135Y-88288171D01*
X102932452Y-88286500D01*
X101985116Y-88286500D01*
X101969877Y-88290975D01*
X101968672Y-88292365D01*
X101967001Y-88300048D01*
X101967001Y-88417095D01*
X100508500Y-88417095D01*
X100508500Y-81750886D01*
X100893300Y-81750886D01*
X100897775Y-81766125D01*
X100899165Y-81767330D01*
X100906848Y-81769001D01*
X101776885Y-81769001D01*
X101792124Y-81764526D01*
X101793329Y-81763136D01*
X101795000Y-81755453D01*
X101795000Y-81750886D01*
X102303000Y-81750886D01*
X102307475Y-81766125D01*
X102308865Y-81767330D01*
X102316548Y-81769001D01*
X103186584Y-81769001D01*
X103201823Y-81764526D01*
X103203028Y-81763136D01*
X103204699Y-81755453D01*
X103204699Y-81533832D01*
X103204329Y-81527011D01*
X103198805Y-81476149D01*
X103195179Y-81460897D01*
X103150024Y-81340447D01*
X103141486Y-81324852D01*
X103064985Y-81222777D01*
X103052424Y-81210216D01*
X102950349Y-81133715D01*
X102934754Y-81125177D01*
X102814306Y-81080023D01*
X102799051Y-81076396D01*
X102748186Y-81070870D01*
X102741372Y-81070501D01*
X102321115Y-81070501D01*
X102305876Y-81074976D01*
X102304671Y-81076366D01*
X102303000Y-81084049D01*
X102303000Y-81750886D01*
X101795000Y-81750886D01*
X101795000Y-81088617D01*
X101790525Y-81073378D01*
X101789135Y-81072173D01*
X101781452Y-81070502D01*
X101356631Y-81070502D01*
X101349810Y-81070872D01*
X101298948Y-81076396D01*
X101283696Y-81080022D01*
X101163246Y-81125177D01*
X101147651Y-81133715D01*
X101045576Y-81210216D01*
X101033015Y-81222777D01*
X100956514Y-81324852D01*
X100947976Y-81340447D01*
X100902822Y-81460895D01*
X100899195Y-81476150D01*
X100893669Y-81527015D01*
X100893300Y-81533829D01*
X100893300Y-81750886D01*
X100508500Y-81750886D01*
X100508500Y-80634500D01*
X100528502Y-80566379D01*
X100582158Y-80519886D01*
X100634500Y-80508500D01*
X166365500Y-80508500D01*
X166433621Y-80528502D01*
G37*
G04 #@! TD.AperFunction*
G04 #@! TA.AperFunction,Conductor*
G36*
X109316738Y-83957526D02*
G01*
X109324231Y-83959201D01*
X109332157Y-83958952D01*
X109332158Y-83958952D01*
X109392308Y-83957061D01*
X109396267Y-83956999D01*
X109402620Y-83956999D01*
X109470741Y-83977001D01*
X109517234Y-84030657D01*
X109528620Y-84082999D01*
X109528620Y-84585633D01*
X109535375Y-84647815D01*
X109586505Y-84784204D01*
X109641326Y-84857351D01*
X109666174Y-84923857D01*
X109666500Y-84932916D01*
X109666500Y-85197476D01*
X109646498Y-85265597D01*
X109634142Y-85281779D01*
X109560960Y-85363056D01*
X109465473Y-85528444D01*
X109406458Y-85710072D01*
X109386496Y-85900000D01*
X109406458Y-86089928D01*
X109465473Y-86271556D01*
X109560960Y-86436944D01*
X109565378Y-86441851D01*
X109565379Y-86441852D01*
X109605980Y-86486944D01*
X109688747Y-86578866D01*
X109843248Y-86691118D01*
X109849276Y-86693802D01*
X109849278Y-86693803D01*
X110011677Y-86766107D01*
X110017712Y-86768794D01*
X110111112Y-86788647D01*
X110198056Y-86807128D01*
X110198061Y-86807128D01*
X110204513Y-86808500D01*
X110395487Y-86808500D01*
X110401939Y-86807128D01*
X110401944Y-86807128D01*
X110540660Y-86777642D01*
X110582288Y-86768794D01*
X110588321Y-86766108D01*
X110588324Y-86766107D01*
X110657745Y-86735199D01*
X110728112Y-86725765D01*
X110792409Y-86755872D01*
X110803276Y-86767334D01*
X110804522Y-86769348D01*
X110929697Y-86894305D01*
X110934235Y-86897102D01*
X110974824Y-86954353D01*
X110978054Y-87025276D01*
X110942428Y-87086687D01*
X110933932Y-87094062D01*
X110923793Y-87102098D01*
X110809261Y-87216829D01*
X110800249Y-87228240D01*
X110715184Y-87366243D01*
X110709037Y-87379424D01*
X110657862Y-87533710D01*
X110654995Y-87547086D01*
X110645328Y-87641438D01*
X110645000Y-87647855D01*
X110645000Y-87760385D01*
X110649475Y-87775624D01*
X110650865Y-87776829D01*
X110658548Y-87778500D01*
X112006000Y-87778500D01*
X112074121Y-87798502D01*
X112120614Y-87852158D01*
X112132000Y-87904500D01*
X112132000Y-89109884D01*
X112136475Y-89125123D01*
X112137865Y-89126328D01*
X112145548Y-89127999D01*
X112400095Y-89127999D01*
X112406614Y-89127662D01*
X112502206Y-89117743D01*
X112515600Y-89114851D01*
X112669784Y-89063412D01*
X112682962Y-89057239D01*
X112820807Y-88971937D01*
X112837945Y-88958354D01*
X112838745Y-88959363D01*
X112894403Y-88928908D01*
X112965223Y-88933910D01*
X112987410Y-88944745D01*
X113018225Y-88963739D01*
X113130090Y-89032694D01*
X113137262Y-89037115D01*
X113190168Y-89054663D01*
X113298611Y-89090632D01*
X113298613Y-89090632D01*
X113305139Y-89092797D01*
X113311975Y-89093497D01*
X113311978Y-89093498D01*
X113355031Y-89097909D01*
X113409600Y-89103500D01*
X114410400Y-89103500D01*
X114413646Y-89103163D01*
X114413650Y-89103163D01*
X114509308Y-89093238D01*
X114509312Y-89093237D01*
X114516166Y-89092526D01*
X114522702Y-89090345D01*
X114522704Y-89090345D01*
X114654806Y-89046272D01*
X114683946Y-89036550D01*
X114834348Y-88943478D01*
X114959305Y-88818303D01*
X114992481Y-88764482D01*
X115039389Y-88688384D01*
X115092162Y-88640890D01*
X115146649Y-88628500D01*
X115655101Y-88628500D01*
X115723222Y-88648502D01*
X115744196Y-88665405D01*
X121627620Y-94548830D01*
X121661646Y-94611142D01*
X121656581Y-94681957D01*
X121614034Y-94738793D01*
X121547514Y-94763604D01*
X121538525Y-94763925D01*
X115312019Y-94763925D01*
X115243898Y-94743923D01*
X115222924Y-94727020D01*
X111847122Y-91351217D01*
X111813096Y-91288905D01*
X111810907Y-91275292D01*
X111794232Y-91116635D01*
X111794232Y-91116633D01*
X111793542Y-91110072D01*
X111734527Y-90928444D01*
X111724727Y-90911469D01*
X111668306Y-90813746D01*
X111639040Y-90763056D01*
X111614411Y-90735702D01*
X111515675Y-90626045D01*
X111515671Y-90626041D01*
X111511253Y-90621134D01*
X111365467Y-90515214D01*
X111362094Y-90512763D01*
X111362093Y-90512762D01*
X111356752Y-90508882D01*
X111350724Y-90506198D01*
X111350722Y-90506197D01*
X111188319Y-90433891D01*
X111188318Y-90433891D01*
X111182288Y-90431206D01*
X111088887Y-90411353D01*
X111001944Y-90392872D01*
X111001939Y-90392872D01*
X110995487Y-90391500D01*
X110804513Y-90391500D01*
X110798061Y-90392872D01*
X110798056Y-90392872D01*
X110711113Y-90411353D01*
X110617712Y-90431206D01*
X110611682Y-90433891D01*
X110611681Y-90433891D01*
X110449278Y-90506197D01*
X110449276Y-90506198D01*
X110443248Y-90508882D01*
X110437907Y-90512762D01*
X110437906Y-90512763D01*
X110434533Y-90515214D01*
X110288747Y-90621134D01*
X110284329Y-90626041D01*
X110284325Y-90626045D01*
X110185590Y-90735702D01*
X110160960Y-90763056D01*
X110131694Y-90813746D01*
X110075274Y-90911469D01*
X110065473Y-90928444D01*
X110006458Y-91110072D01*
X110005768Y-91116633D01*
X110005768Y-91116635D01*
X109997763Y-91192800D01*
X109986496Y-91300000D01*
X109987186Y-91306565D01*
X110003632Y-91463037D01*
X110006458Y-91489928D01*
X110008498Y-91496206D01*
X110028919Y-91559056D01*
X110030946Y-91630024D01*
X109994284Y-91690821D01*
X109930572Y-91722147D01*
X109860038Y-91714054D01*
X109819993Y-91687088D01*
X106550000Y-88417095D01*
X110645001Y-88417095D01*
X110645338Y-88423614D01*
X110655257Y-88519206D01*
X110658149Y-88532600D01*
X110709588Y-88686784D01*
X110715761Y-88699962D01*
X110801063Y-88837807D01*
X110810099Y-88849208D01*
X110924829Y-88963739D01*
X110936240Y-88972751D01*
X111074243Y-89057816D01*
X111087424Y-89063963D01*
X111241710Y-89115138D01*
X111255086Y-89118005D01*
X111349438Y-89127672D01*
X111355854Y-89128000D01*
X111605885Y-89128000D01*
X111621124Y-89123525D01*
X111622329Y-89122135D01*
X111624000Y-89114452D01*
X111624000Y-88304615D01*
X111619525Y-88289376D01*
X111618135Y-88288171D01*
X111610452Y-88286500D01*
X110663116Y-88286500D01*
X110647877Y-88290975D01*
X110646672Y-88292365D01*
X110645001Y-88300048D01*
X110645001Y-88417095D01*
X106550000Y-88417095D01*
X106477405Y-88344500D01*
X106443379Y-88282188D01*
X106440500Y-88255405D01*
X106440500Y-87594600D01*
X106440163Y-87591350D01*
X106430238Y-87495692D01*
X106430237Y-87495688D01*
X106429526Y-87488834D01*
X106421201Y-87463879D01*
X106375868Y-87328002D01*
X106373550Y-87321054D01*
X106280478Y-87170652D01*
X106193891Y-87084216D01*
X106159812Y-87021934D01*
X106164815Y-86951114D01*
X106193736Y-86906025D01*
X106276134Y-86823483D01*
X106281305Y-86818303D01*
X106287348Y-86808500D01*
X106370275Y-86673968D01*
X106370276Y-86673966D01*
X106374115Y-86667738D01*
X106429797Y-86499861D01*
X106431121Y-86486944D01*
X106440172Y-86398598D01*
X106440500Y-86395400D01*
X106440500Y-85594600D01*
X106437906Y-85569600D01*
X106430238Y-85495692D01*
X106430237Y-85495688D01*
X106429526Y-85488834D01*
X106423903Y-85471978D01*
X106375868Y-85328002D01*
X106373550Y-85321054D01*
X106280478Y-85170652D01*
X106263939Y-85154142D01*
X106229859Y-85091859D01*
X106234862Y-85021039D01*
X106277391Y-84964142D01*
X106354780Y-84906142D01*
X106354782Y-84906140D01*
X106361961Y-84900760D01*
X106449315Y-84784204D01*
X106500445Y-84647815D01*
X106507200Y-84585633D01*
X106507200Y-84082999D01*
X106527202Y-84014878D01*
X106580858Y-83968385D01*
X106633200Y-83956999D01*
X109305555Y-83956999D01*
X109316738Y-83957526D01*
G37*
G04 #@! TD.AperFunction*
G04 #@! TA.AperFunction,Conductor*
G36*
X126420921Y-83653502D02*
G01*
X126467414Y-83707158D01*
X126478800Y-83759500D01*
X126478800Y-84585633D01*
X126485555Y-84647815D01*
X126536685Y-84784204D01*
X126624039Y-84900760D01*
X126740595Y-84988114D01*
X126876984Y-85039244D01*
X126932860Y-85045314D01*
X126933496Y-85045383D01*
X126939166Y-85045999D01*
X127662084Y-85045999D01*
X127730205Y-85066001D01*
X127776698Y-85119657D01*
X127786802Y-85189931D01*
X127769344Y-85238115D01*
X127732885Y-85297262D01*
X127677203Y-85465139D01*
X127676503Y-85471975D01*
X127676502Y-85471978D01*
X127672091Y-85515031D01*
X127666500Y-85569600D01*
X127666500Y-86345400D01*
X127666837Y-86348646D01*
X127666837Y-86348650D01*
X127676508Y-86441852D01*
X127677474Y-86451166D01*
X127679655Y-86457702D01*
X127679655Y-86457704D01*
X127691048Y-86491852D01*
X127733450Y-86618946D01*
X127826522Y-86769348D01*
X127951697Y-86894305D01*
X127956235Y-86897102D01*
X127996824Y-86954353D01*
X128000054Y-87025276D01*
X127964428Y-87086687D01*
X127955932Y-87094062D01*
X127945793Y-87102098D01*
X127831261Y-87216829D01*
X127822249Y-87228240D01*
X127737184Y-87366243D01*
X127731037Y-87379424D01*
X127679862Y-87533710D01*
X127676995Y-87547086D01*
X127667328Y-87641438D01*
X127667000Y-87647855D01*
X127667000Y-87760385D01*
X127671475Y-87775624D01*
X127672865Y-87776829D01*
X127680548Y-87778500D01*
X129028000Y-87778500D01*
X129096121Y-87798502D01*
X129142614Y-87852158D01*
X129154000Y-87904500D01*
X129154000Y-89109884D01*
X129158475Y-89125123D01*
X129159865Y-89126328D01*
X129167548Y-89127999D01*
X129422095Y-89127999D01*
X129428614Y-89127662D01*
X129524206Y-89117743D01*
X129537600Y-89114851D01*
X129691784Y-89063412D01*
X129704962Y-89057239D01*
X129842807Y-88971937D01*
X129859945Y-88958354D01*
X129860745Y-88959363D01*
X129916403Y-88928908D01*
X129987223Y-88933910D01*
X130009410Y-88944745D01*
X130040225Y-88963739D01*
X130152090Y-89032694D01*
X130159262Y-89037115D01*
X130212168Y-89054663D01*
X130270527Y-89095094D01*
X130297764Y-89160658D01*
X130298500Y-89174256D01*
X130298500Y-90180308D01*
X130278498Y-90248429D01*
X130261595Y-90269403D01*
X126803977Y-93727020D01*
X126741665Y-93761046D01*
X126714882Y-93763925D01*
X126658990Y-93763925D01*
X126652538Y-93765297D01*
X126652533Y-93765297D01*
X126588068Y-93779000D01*
X126472189Y-93803631D01*
X126466159Y-93806316D01*
X126466158Y-93806316D01*
X126303755Y-93878622D01*
X126303753Y-93878623D01*
X126297725Y-93881307D01*
X126143224Y-93993559D01*
X126015437Y-94135481D01*
X125968665Y-94216492D01*
X125938469Y-94268794D01*
X125919950Y-94300869D01*
X125860935Y-94482497D01*
X125843591Y-94647522D01*
X125843215Y-94651095D01*
X125816202Y-94716752D01*
X125757980Y-94757382D01*
X125717905Y-94763925D01*
X124153232Y-94763925D01*
X124085111Y-94743923D01*
X124038618Y-94690267D01*
X124028514Y-94619993D01*
X124033399Y-94598988D01*
X124041377Y-94574437D01*
X124071430Y-94481943D01*
X124081135Y-94389610D01*
X124090702Y-94298580D01*
X124091392Y-94292015D01*
X124081070Y-94193803D01*
X124072120Y-94108650D01*
X124072120Y-94108648D01*
X124071430Y-94102087D01*
X124046255Y-94024606D01*
X124021468Y-93948320D01*
X124019440Y-93877353D01*
X124038101Y-93837987D01*
X124039040Y-93836944D01*
X124111461Y-93711507D01*
X124131223Y-93677279D01*
X124131224Y-93677278D01*
X124134527Y-93671556D01*
X124193542Y-93489928D01*
X124198966Y-93438327D01*
X124212814Y-93306565D01*
X124213504Y-93300000D01*
X124201100Y-93181983D01*
X124194232Y-93116635D01*
X124194232Y-93116633D01*
X124193542Y-93110072D01*
X124134527Y-92928444D01*
X124039040Y-92763056D01*
X124011653Y-92732639D01*
X123915675Y-92626045D01*
X123915674Y-92626044D01*
X123911253Y-92621134D01*
X123771734Y-92519767D01*
X123762094Y-92512763D01*
X123762093Y-92512762D01*
X123756752Y-92508882D01*
X123750724Y-92506198D01*
X123750722Y-92506197D01*
X123588319Y-92433891D01*
X123588318Y-92433891D01*
X123582288Y-92431206D01*
X123482301Y-92409953D01*
X123401944Y-92392872D01*
X123401939Y-92392872D01*
X123395487Y-92391500D01*
X123204513Y-92391500D01*
X123198053Y-92392873D01*
X123198054Y-92392873D01*
X123117696Y-92409953D01*
X123046906Y-92404551D01*
X122990273Y-92361734D01*
X122965780Y-92295096D01*
X122965500Y-92286706D01*
X122965500Y-89174197D01*
X122985502Y-89106076D01*
X123039158Y-89059583D01*
X123051623Y-89054674D01*
X123099002Y-89038867D01*
X123099004Y-89038866D01*
X123105946Y-89036550D01*
X123256348Y-88943478D01*
X123381305Y-88818303D01*
X123414481Y-88764482D01*
X123470275Y-88673968D01*
X123470276Y-88673966D01*
X123474115Y-88667738D01*
X123529797Y-88499861D01*
X123538277Y-88417095D01*
X127667001Y-88417095D01*
X127667338Y-88423614D01*
X127677257Y-88519206D01*
X127680149Y-88532600D01*
X127731588Y-88686784D01*
X127737761Y-88699962D01*
X127823063Y-88837807D01*
X127832099Y-88849208D01*
X127946829Y-88963739D01*
X127958240Y-88972751D01*
X128096243Y-89057816D01*
X128109424Y-89063963D01*
X128263710Y-89115138D01*
X128277086Y-89118005D01*
X128371438Y-89127672D01*
X128377854Y-89128000D01*
X128627885Y-89128000D01*
X128643124Y-89123525D01*
X128644329Y-89122135D01*
X128646000Y-89114452D01*
X128646000Y-88304615D01*
X128641525Y-88289376D01*
X128640135Y-88288171D01*
X128632452Y-88286500D01*
X127685116Y-88286500D01*
X127669877Y-88290975D01*
X127668672Y-88292365D01*
X127667001Y-88300048D01*
X127667001Y-88417095D01*
X123538277Y-88417095D01*
X123540500Y-88395400D01*
X123540500Y-87594600D01*
X123540163Y-87591350D01*
X123530238Y-87495692D01*
X123530237Y-87495688D01*
X123529526Y-87488834D01*
X123521201Y-87463879D01*
X123475868Y-87328002D01*
X123473550Y-87321054D01*
X123380478Y-87170652D01*
X123293891Y-87084216D01*
X123259812Y-87021934D01*
X123264815Y-86951114D01*
X123293736Y-86906025D01*
X123376134Y-86823483D01*
X123381305Y-86818303D01*
X123387348Y-86808500D01*
X123470275Y-86673968D01*
X123470276Y-86673966D01*
X123474115Y-86667738D01*
X123529797Y-86499861D01*
X123531121Y-86486944D01*
X123540172Y-86398598D01*
X123540500Y-86395400D01*
X123540500Y-85594600D01*
X123537906Y-85569600D01*
X123530238Y-85495692D01*
X123530237Y-85495688D01*
X123529526Y-85488834D01*
X123523903Y-85471978D01*
X123475868Y-85328002D01*
X123473550Y-85321054D01*
X123380478Y-85170652D01*
X123274356Y-85064715D01*
X123240277Y-85002433D01*
X123245280Y-84931613D01*
X123262548Y-84899977D01*
X123298380Y-84852166D01*
X123349315Y-84784204D01*
X123400445Y-84647815D01*
X123407200Y-84585633D01*
X123407200Y-83759500D01*
X123427202Y-83691379D01*
X123480858Y-83644886D01*
X123533200Y-83633500D01*
X126352800Y-83633500D01*
X126420921Y-83653502D01*
G37*
G04 #@! TD.AperFunction*
G04 #@! TA.AperFunction,Conductor*
G36*
X145896121Y-87798502D02*
G01*
X145942614Y-87852158D01*
X145954000Y-87904500D01*
X145954000Y-89109884D01*
X145958475Y-89125123D01*
X145959865Y-89126328D01*
X145967548Y-89127999D01*
X146222095Y-89127999D01*
X146228614Y-89127662D01*
X146324206Y-89117743D01*
X146337600Y-89114851D01*
X146491784Y-89063412D01*
X146504962Y-89057239D01*
X146642807Y-88971937D01*
X146659945Y-88958354D01*
X146660745Y-88959363D01*
X146716403Y-88928908D01*
X146787223Y-88933910D01*
X146809410Y-88944745D01*
X146840225Y-88963739D01*
X146952090Y-89032694D01*
X146959262Y-89037115D01*
X147012168Y-89054663D01*
X147070527Y-89095094D01*
X147097764Y-89160658D01*
X147098500Y-89174256D01*
X147098500Y-89703210D01*
X147078498Y-89771331D01*
X147061595Y-89792305D01*
X146598484Y-90255416D01*
X146536172Y-90289442D01*
X146465357Y-90284377D01*
X146421159Y-90254312D01*
X146420577Y-90254959D01*
X146415842Y-90250696D01*
X146415760Y-90250640D01*
X146411253Y-90245634D01*
X146256752Y-90133382D01*
X146250724Y-90130698D01*
X146250722Y-90130697D01*
X146088319Y-90058391D01*
X146088318Y-90058391D01*
X146082288Y-90055706D01*
X145987006Y-90035453D01*
X145901944Y-90017372D01*
X145901939Y-90017372D01*
X145895487Y-90016000D01*
X145839595Y-90016000D01*
X145771474Y-89995998D01*
X145750499Y-89979095D01*
X145114500Y-89343095D01*
X145080475Y-89280783D01*
X145085540Y-89209967D01*
X145128087Y-89153132D01*
X145194607Y-89128321D01*
X145203596Y-89128000D01*
X145427885Y-89128000D01*
X145443124Y-89123525D01*
X145444329Y-89122135D01*
X145446000Y-89114452D01*
X145446000Y-87904500D01*
X145466002Y-87836379D01*
X145519658Y-87789886D01*
X145572000Y-87778500D01*
X145828000Y-87778500D01*
X145896121Y-87798502D01*
G37*
G04 #@! TD.AperFunction*
G04 #@! TA.AperFunction,Conductor*
G36*
X159146028Y-83446003D02*
G01*
X159167002Y-83462906D01*
X159681096Y-83977001D01*
X160189347Y-84485252D01*
X160196887Y-84493538D01*
X160200999Y-84500017D01*
X160206776Y-84505442D01*
X160223259Y-84520920D01*
X160259225Y-84582132D01*
X160262270Y-84599164D01*
X160266701Y-84639959D01*
X160266702Y-84639963D01*
X160267555Y-84647815D01*
X160318685Y-84784204D01*
X160406039Y-84900760D01*
X160522595Y-84988114D01*
X160658984Y-85039244D01*
X160714860Y-85045314D01*
X160715496Y-85045383D01*
X160721166Y-85045999D01*
X161576084Y-85045999D01*
X161644205Y-85066001D01*
X161690698Y-85119657D01*
X161700802Y-85189931D01*
X161683344Y-85238115D01*
X161646885Y-85297262D01*
X161591203Y-85465139D01*
X161590503Y-85471975D01*
X161590502Y-85471978D01*
X161586091Y-85515031D01*
X161580500Y-85569600D01*
X161580500Y-86345400D01*
X161580837Y-86348646D01*
X161580837Y-86348650D01*
X161590508Y-86441852D01*
X161591474Y-86451166D01*
X161593655Y-86457702D01*
X161593655Y-86457704D01*
X161605048Y-86491852D01*
X161647450Y-86618946D01*
X161740522Y-86769348D01*
X161865697Y-86894305D01*
X161870235Y-86897102D01*
X161910824Y-86954353D01*
X161914054Y-87025276D01*
X161878428Y-87086687D01*
X161869932Y-87094062D01*
X161859793Y-87102098D01*
X161745261Y-87216829D01*
X161736249Y-87228240D01*
X161651184Y-87366243D01*
X161645037Y-87379424D01*
X161593862Y-87533710D01*
X161590995Y-87547086D01*
X161581328Y-87641438D01*
X161581000Y-87647855D01*
X161581000Y-87760385D01*
X161585475Y-87775624D01*
X161586865Y-87776829D01*
X161594548Y-87778500D01*
X162942000Y-87778500D01*
X163010121Y-87798502D01*
X163056614Y-87852158D01*
X163068000Y-87904500D01*
X163068000Y-88160500D01*
X163047998Y-88228621D01*
X162994342Y-88275114D01*
X162942000Y-88286500D01*
X161599116Y-88286500D01*
X161583877Y-88290975D01*
X161582672Y-88292365D01*
X161581001Y-88300048D01*
X161581001Y-88417095D01*
X161581338Y-88423614D01*
X161591257Y-88519206D01*
X161594150Y-88532603D01*
X161616843Y-88600625D01*
X161619427Y-88671574D01*
X161583243Y-88732658D01*
X161519779Y-88764482D01*
X161497319Y-88766500D01*
X157402649Y-88766500D01*
X157334528Y-88746498D01*
X157288035Y-88692842D01*
X157277931Y-88622568D01*
X157283056Y-88600833D01*
X157310131Y-88519206D01*
X157316547Y-88499861D01*
X157327250Y-88395400D01*
X157327250Y-87594600D01*
X157326913Y-87591350D01*
X157316988Y-87495692D01*
X157316987Y-87495688D01*
X157316276Y-87488834D01*
X157307951Y-87463879D01*
X157262618Y-87328002D01*
X157260300Y-87321054D01*
X157167228Y-87170652D01*
X157080641Y-87084216D01*
X157046562Y-87021934D01*
X157051565Y-86951114D01*
X157080486Y-86906025D01*
X157162884Y-86823483D01*
X157168055Y-86818303D01*
X157174098Y-86808500D01*
X157257025Y-86673968D01*
X157257026Y-86673966D01*
X157260865Y-86667738D01*
X157316547Y-86499861D01*
X157317871Y-86486944D01*
X157326922Y-86398598D01*
X157327250Y-86395400D01*
X157327250Y-85594600D01*
X157324656Y-85569600D01*
X157316988Y-85495692D01*
X157316987Y-85495688D01*
X157316276Y-85488834D01*
X157310653Y-85471978D01*
X157262618Y-85328002D01*
X157260300Y-85321054D01*
X157167228Y-85170652D01*
X157132602Y-85136086D01*
X157083849Y-85087418D01*
X157049770Y-85025135D01*
X157054773Y-84954315D01*
X157083772Y-84909150D01*
X157086782Y-84906140D01*
X157093961Y-84900760D01*
X157181315Y-84784204D01*
X157232445Y-84647815D01*
X157239200Y-84585633D01*
X157239200Y-83600365D01*
X157235424Y-83565608D01*
X157247952Y-83495727D01*
X157296272Y-83443711D01*
X157360687Y-83426001D01*
X159077907Y-83426001D01*
X159146028Y-83446003D01*
G37*
G04 #@! TD.AperFunction*
M02*
