G04 #@! TF.GenerationSoftware,KiCad,Pcbnew,6.0.9-8da3e8f707~116~ubuntu22.04.1*
G04 #@! TF.CreationDate,2022-11-08T11:47:18+01:00*
G04 #@! TF.ProjectId,PCB-lijnvolger,5043422d-6c69-46a6-9e76-6f6c6765722e,1.0*
G04 #@! TF.SameCoordinates,Original*
G04 #@! TF.FileFunction,Soldermask,Top*
G04 #@! TF.FilePolarity,Negative*
%FSLAX46Y46*%
G04 Gerber Fmt 4.6, Leading zero omitted, Abs format (unit mm)*
G04 Created by KiCad (PCBNEW 6.0.9-8da3e8f707~116~ubuntu22.04.1) date 2022-11-08 11:47:18*
%MOMM*%
%LPD*%
G01*
G04 APERTURE LIST*
G04 Aperture macros list*
%AMRoundRect*
0 Rectangle with rounded corners*
0 $1 Rounding radius*
0 $2 $3 $4 $5 $6 $7 $8 $9 X,Y pos of 4 corners*
0 Add a 4 corners polygon primitive as box body*
4,1,4,$2,$3,$4,$5,$6,$7,$8,$9,$2,$3,0*
0 Add four circle primitives for the rounded corners*
1,1,$1+$1,$2,$3*
1,1,$1+$1,$4,$5*
1,1,$1+$1,$6,$7*
1,1,$1+$1,$8,$9*
0 Add four rect primitives between the rounded corners*
20,1,$1+$1,$2,$3,$4,$5,0*
20,1,$1+$1,$4,$5,$6,$7,0*
20,1,$1+$1,$6,$7,$8,$9,0*
20,1,$1+$1,$8,$9,$2,$3,0*%
G04 Aperture macros list end*
%ADD10R,1.560000X0.650000*%
%ADD11RoundRect,0.250000X0.450000X-0.350000X0.450000X0.350000X-0.450000X0.350000X-0.450000X-0.350000X0*%
%ADD12C,5.000000*%
%ADD13R,2.000000X1.500000*%
%ADD14R,2.000000X3.800000*%
%ADD15R,1.700000X1.700000*%
%ADD16O,1.700000X1.700000*%
%ADD17RoundRect,0.062500X-0.350000X-0.062500X0.350000X-0.062500X0.350000X0.062500X-0.350000X0.062500X0*%
%ADD18RoundRect,0.062500X-0.062500X-0.350000X0.062500X-0.350000X0.062500X0.350000X-0.062500X0.350000X0*%
%ADD19R,2.600000X2.600000*%
%ADD20RoundRect,0.250000X0.475000X-0.337500X0.475000X0.337500X-0.475000X0.337500X-0.475000X-0.337500X0*%
%ADD21RoundRect,0.250000X-0.337500X-0.475000X0.337500X-0.475000X0.337500X0.475000X-0.337500X0.475000X0*%
%ADD22RoundRect,0.250000X-0.475000X0.337500X-0.475000X-0.337500X0.475000X-0.337500X0.475000X0.337500X0*%
G04 APERTURE END LIST*
D10*
X144919075Y-92691000D03*
X144919075Y-93641000D03*
X144919075Y-94591000D03*
X147619075Y-94591000D03*
X147619075Y-93641000D03*
X147619075Y-92691000D03*
D11*
X149700000Y-94650000D03*
X149700000Y-92650000D03*
X116050000Y-94400000D03*
X116050000Y-92400000D03*
D12*
X163700000Y-93700000D03*
D13*
X162281000Y-88914000D03*
D14*
X155981000Y-86614000D03*
D13*
X162281000Y-86614000D03*
X162281000Y-84314000D03*
D15*
X158775000Y-92325000D03*
D16*
X158775000Y-94865000D03*
X156235000Y-92325000D03*
X156235000Y-94865000D03*
X153695000Y-92325000D03*
X153695000Y-94865000D03*
D17*
X127856500Y-92095000D03*
X127856500Y-92595000D03*
X127856500Y-93095000D03*
X127856500Y-93595000D03*
X127856500Y-94095000D03*
X127856500Y-94595000D03*
D18*
X128544000Y-95282500D03*
X129044000Y-95282500D03*
X129544000Y-95282500D03*
X130044000Y-95282500D03*
X130544000Y-95282500D03*
X131044000Y-95282500D03*
D17*
X131731500Y-94595000D03*
X131731500Y-94095000D03*
X131731500Y-93595000D03*
X131731500Y-93095000D03*
X131731500Y-92595000D03*
X131731500Y-92095000D03*
D18*
X131044000Y-91407500D03*
X130544000Y-91407500D03*
X130044000Y-91407500D03*
X129544000Y-91407500D03*
X129044000Y-91407500D03*
X128544000Y-91407500D03*
D19*
X129794000Y-93345000D03*
D20*
X109100000Y-94737500D03*
X109100000Y-92662500D03*
X142300000Y-94837500D03*
X142300000Y-92762500D03*
D10*
X111172000Y-92395000D03*
X111172000Y-93345000D03*
X111172000Y-94295000D03*
X113872000Y-94295000D03*
X113872000Y-93345000D03*
X113872000Y-92395000D03*
D12*
X103300000Y-93700000D03*
D20*
X126000000Y-93500000D03*
X126000000Y-91425000D03*
D21*
X155934500Y-81950000D03*
X158009500Y-81950000D03*
D22*
X165227000Y-85576500D03*
X165227000Y-87651500D03*
M02*
